<svg xmlns="http://www.w3.org/2000/svg" xmlns:xlink="http://www.w3.org/1999/xlink" viewBox="0 0 1395.13 1768.7"><defs><style>.cls-1{fill:none;}.cls-2{fill:url(#linear-gradient);}.cls-3{fill:url(#linear-gradient-2);}.cls-4{fill:url(#Degradado_sin_nombre_63);}.cls-5{fill:url(#linear-gradient-3);}.cls-6{fill:url(#Degradado_sin_nombre_63-2);}.cls-7{fill:url(#linear-gradient-4);}.cls-8{fill:url(#Degradado_sin_nombre_55);}.cls-9{fill:url(#linear-gradient-5);}.cls-10{fill:url(#Degradado_sin_nombre_63-3);}.cls-11,.cls-12{fill:#cececd;}.cls-12{fill-rule:evenodd;}.cls-13,.cls-42{font-size:18px;fill:#005487;font-family:MyriadPro-Bold, Myriad Pro;font-weight:700;}.cls-13,.cls-24{letter-spacing:-0.01em;}.cls-14{letter-spacing:-0.08em;}.cls-15{letter-spacing:-0.02em;}.cls-16{letter-spacing:-0.01em;}.cls-17{letter-spacing:-0.04em;}.cls-18{letter-spacing:-0.04em;}.cls-19{letter-spacing:0em;}.cls-20,.cls-42{letter-spacing:-0.04em;}.cls-21{letter-spacing:-0.04em;}.cls-22{letter-spacing:-0.08em;}.cls-23{letter-spacing:-0.09em;}.cls-25{letter-spacing:0em;}.cls-26{letter-spacing:-0.04em;}.cls-27{letter-spacing:0em;}.cls-28{letter-spacing:-0.04em;}.cls-29{letter-spacing:-0.05em;}.cls-30{fill:url(#linear-gradient-6);}.cls-31{fill:url(#Degradado_sin_nombre_63-4);}.cls-32{fill:url(#linear-gradient-7);}.cls-33{fill:url(#Degradado_sin_nombre_63-5);}.cls-34{fill:url(#linear-gradient-8);}.cls-35{fill:url(#Degradado_sin_nombre_55-2);}.cls-36{fill:url(#linear-gradient-9);}.cls-37{fill:url(#Degradado_sin_nombre_63-6);}.cls-38{letter-spacing:-0.01em;}.cls-39{letter-spacing:-0.09em;}.cls-40{letter-spacing:-0.02em;}.cls-41{letter-spacing:-0.03em;}.cls-43{letter-spacing:-0.07em;}.cls-44{fill:url(#linear-gradient-10);}.cls-45{fill:#fff;}.cls-46{fill:url(#linear-gradient-11);}.cls-47{fill:url(#linear-gradient-12);}.cls-48{fill:url(#linear-gradient-13);}.cls-49{fill:url(#linear-gradient-14);}.cls-50{fill:url(#linear-gradient-15);}.cls-51{fill:url(#linear-gradient-16);}.cls-52{fill:url(#linear-gradient-17);}.cls-53{fill:url(#linear-gradient-18);}.cls-54{fill:url(#linear-gradient-19);}.cls-55{fill:url(#linear-gradient-20);}.cls-56{fill:url(#linear-gradient-21);}.cls-57{fill:url(#linear-gradient-22);}.cls-58{fill:url(#linear-gradient-23);}.cls-59{fill:url(#linear-gradient-24);}.cls-60{fill:url(#linear-gradient-25);}.cls-61{fill:url(#linear-gradient-26);}.cls-62{fill:url(#linear-gradient-27);}.cls-63{fill:url(#linear-gradient-28);}.cls-64{fill:url(#linear-gradient-34);}.cls-65{fill:url(#linear-gradient-35);}.cls-66{fill:url(#linear-gradient-36);}.cls-67{fill:url(#linear-gradient-37);}.cls-68{fill:url(#linear-gradient-38);}.cls-69{fill:url(#linear-gradient-39);}.cls-70{fill:url(#linear-gradient-40);}.cls-71{fill:url(#linear-gradient-41);}.cls-72{fill:url(#linear-gradient-42);}.cls-73{fill:url(#linear-gradient-43);}.cls-74{fill:url(#linear-gradient-44);}.cls-75{fill:url(#linear-gradient-45);}.cls-76{fill:url(#linear-gradient-46);}.cls-77{fill:url(#linear-gradient-47);}.cls-78{fill:url(#linear-gradient-48);}.cls-79{fill:url(#linear-gradient-49);}.cls-80{fill:url(#linear-gradient-50);}.cls-81{fill:url(#linear-gradient-51);}.cls-82{fill:url(#linear-gradient-52);}.cls-83{fill:url(#linear-gradient-53);}.cls-84{fill:url(#linear-gradient-54);}.cls-85{fill:url(#linear-gradient-55);}.cls-86{fill:url(#linear-gradient-56);}.cls-87{fill:url(#linear-gradient-57);}.cls-88{fill:url(#linear-gradient-58);}.cls-89{fill:url(#linear-gradient-59);}.cls-90{fill:url(#linear-gradient-60);}.cls-91{fill:url(#linear-gradient-61);}.cls-92{fill:url(#linear-gradient-62);}.cls-93{fill:url(#linear-gradient-63);}.cls-94{fill:url(#linear-gradient-64);}.cls-95{fill:url(#linear-gradient-65);}.cls-96{fill:url(#linear-gradient-66);}.cls-97{fill:url(#linear-gradient-67);}.cls-98{fill:url(#linear-gradient-68);}.cls-99{fill:url(#linear-gradient-69);}.cls-100{font-size:17.82px;fill:#58595b;font-family:Montserrat-Regular, Montserrat;}.cls-101{letter-spacing:-0.01em;}.cls-102{letter-spacing:-0.01em;}.cls-103{letter-spacing:0em;}.cls-104{letter-spacing:-0.01em;}.cls-105{letter-spacing:0em;}.cls-106{letter-spacing:-0.01em;}.cls-107{letter-spacing:-0.01em;}.cls-108{letter-spacing:-0.01em;}.cls-109{letter-spacing:-0.01em;}.cls-110{letter-spacing:-0.01em;}.cls-111{letter-spacing:-0.01em;}.cls-112{fill:url(#linear-gradient-70);}.cls-113{fill:url(#linear-gradient-71);}.cls-114{fill:url(#linear-gradient-72);}.cls-115{fill:url(#linear-gradient-73);}.cls-116{fill:url(#linear-gradient-74);}.cls-117{fill:url(#linear-gradient-75);}.cls-118{fill:url(#linear-gradient-76);}.cls-119{fill:url(#linear-gradient-77);}.cls-120{fill:url(#linear-gradient-78);}.cls-121{clip-path:url(#clip-path);}.cls-122{fill:#005486;}.cls-123{fill:#00a6e6;}.cls-124{fill:#00a8e9;}.cls-125{fill:#009ddc;}.cls-126{fill:#009edd;}.cls-127{fill:#009fde;}.cls-128{fill:#00a0df;}.cls-129{fill:#00a1e0;}.cls-130{fill:#00a2e1;}.cls-131{fill:#00a3e2;}.cls-132{fill:#00a4e3;}.cls-133{fill:#00a4e4;}.cls-134{fill:#00a5e5;}.cls-135{fill:#005587;}.cls-136{fill:#005688;}.cls-137{fill:#00a7e7;}</style><linearGradient id="linear-gradient" x1="33.01" y1="945.85" x2="1373.42" y2="945.85" gradientUnits="userSpaceOnUse"><stop offset="0" stop-color="#f29a02"/><stop offset="1" stop-color="#ffce15"/></linearGradient><linearGradient id="linear-gradient-2" x1="85.98" y1="515.24" x2="321.52" y2="515.24" gradientUnits="userSpaceOnUse"><stop offset="0" stop-color="#005486"/><stop offset="1" stop-color="#00a8e9"/></linearGradient><linearGradient id="Degradado_sin_nombre_63" x1="274.92" y1="586.41" x2="132.59" y2="444.07" gradientTransform="translate(424.01 6.84) rotate(45)" gradientUnits="userSpaceOnUse"><stop offset="0.03" stop-color="#fff"/><stop offset="0.32" stop-color="#fbfbfc"/><stop offset="0.58" stop-color="#f1f1f2"/><stop offset="0.84" stop-color="#dedee2"/><stop offset="1" stop-color="#ceced4"/></linearGradient><linearGradient id="linear-gradient-3" x1="421.79" y1="520.59" x2="657.33" y2="520.59" xlink:href="#linear-gradient-2"/><linearGradient id="Degradado_sin_nombre_63-2" x1="682.19" y1="611.22" x2="466.51" y2="395.54" gradientTransform="matrix(1, 0, 0, 1, 0, 0)" xlink:href="#Degradado_sin_nombre_63"/><linearGradient id="linear-gradient-4" x1="1080.28" y1="520.59" x2="1315.81" y2="520.59" xlink:href="#linear-gradient-2"/><linearGradient id="Degradado_sin_nombre_55" x1="1219.75" y1="590.99" x2="1219.75" y2="389.6" gradientUnits="userSpaceOnUse"><stop offset="0.03" stop-color="#fff"/><stop offset="0.49" stop-color="#fdfdfd"/><stop offset="0.66" stop-color="#f6f6f8"/><stop offset="0.78" stop-color="#ebebed"/><stop offset="0.88" stop-color="#dadadf"/><stop offset="0.95" stop-color="#c6c6ce"/></linearGradient><linearGradient id="linear-gradient-5" x1="750.43" y1="520.59" x2="985.96" y2="520.59" xlink:href="#linear-gradient-2"/><linearGradient id="Degradado_sin_nombre_63-3" x1="961.07" y1="561.46" x2="818.74" y2="419.13" gradientTransform="matrix(1, 0, 0, 1, 0, 0)" xlink:href="#Degradado_sin_nombre_63"/><linearGradient id="linear-gradient-6" x1="85.98" y1="1776.65" x2="321.52" y2="1776.65" gradientTransform="matrix(1, 0, 0, -1, 0, 3153.12)" xlink:href="#linear-gradient-2"/><linearGradient id="Degradado_sin_nombre_63-4" x1="274.92" y1="1847.82" x2="132.59" y2="1705.49" gradientTransform="matrix(0.71, 0.71, 0.71, -0.71, -1196.61, 2488.67)" xlink:href="#Degradado_sin_nombre_63"/><linearGradient id="linear-gradient-7" x1="421.79" y1="1782.01" x2="657.33" y2="1782.01" gradientTransform="matrix(1, 0, 0, -1, 0, 3153.12)" xlink:href="#linear-gradient-2"/><linearGradient id="Degradado_sin_nombre_63-5" x1="660.48" y1="1902.93" x2="444.8" y2="1687.25" gradientTransform="matrix(1, 0, 0, -1, 21.71, 3122.82)" xlink:href="#Degradado_sin_nombre_63"/><linearGradient id="linear-gradient-8" x1="1080.28" y1="1782.01" x2="1315.81" y2="1782.01" gradientTransform="matrix(1, 0, 0, -1, 0, 3153.12)" xlink:href="#linear-gradient-2"/><linearGradient id="Degradado_sin_nombre_55-2" x1="1198.04" y1="1882.7" x2="1198.04" y2="1681.32" gradientTransform="matrix(1, 0, 0, -1, 21.71, 3122.82)" xlink:href="#Degradado_sin_nombre_55"/><linearGradient id="linear-gradient-9" x1="750.43" y1="1782.01" x2="985.96" y2="1782.01" gradientTransform="matrix(1, 0, 0, -1, 0, 3153.12)" xlink:href="#linear-gradient-2"/><linearGradient id="Degradado_sin_nombre_63-6" x1="939.36" y1="1853.17" x2="797.03" y2="1710.84" gradientTransform="matrix(1, 0, 0, -1, 21.71, 3122.82)" xlink:href="#Degradado_sin_nombre_63"/><linearGradient id="linear-gradient-10" x1="485.8" y1="379.29" x2="595.01" y2="379.29" gradientUnits="userSpaceOnUse"><stop offset="0" stop-color="#00a8e9"/><stop offset="1" stop-color="#005486"/></linearGradient><linearGradient id="linear-gradient-11" x1="814.62" y1="653.39" x2="923.82" y2="653.39" xlink:href="#linear-gradient-10"/><linearGradient id="linear-gradient-12" x1="1146.21" y1="379.29" x2="1255.41" y2="379.29" xlink:href="#linear-gradient-10"/><linearGradient id="linear-gradient-13" x1="149.15" y1="653.39" x2="258.35" y2="653.39" xlink:href="#linear-gradient-10"/><linearGradient id="linear-gradient-14" x1="485.8" y1="1303.24" x2="595.01" y2="1303.24" gradientTransform="matrix(1, 0, 0, -1, 0, 2810.36)" xlink:href="#linear-gradient-10"/><linearGradient id="linear-gradient-15" x1="814.62" y1="1577.34" x2="923.82" y2="1577.34" gradientTransform="matrix(1, 0, 0, -1, 0, 2810.36)" xlink:href="#linear-gradient-10"/><linearGradient id="linear-gradient-16" x1="1146.21" y1="1303.24" x2="1255.41" y2="1303.24" gradientTransform="matrix(1, 0, 0, -1, 0, 2810.36)" xlink:href="#linear-gradient-10"/><linearGradient id="linear-gradient-17" x1="149.15" y1="1577.34" x2="258.35" y2="1577.34" gradientTransform="matrix(1, 0, 0, -1, 0, 2810.36)" xlink:href="#linear-gradient-10"/><linearGradient id="linear-gradient-18" x1="1176.02" y1="379.76" x2="1230.48" y2="379.76" xlink:href="#linear-gradient-2"/><linearGradient id="linear-gradient-19" x1="1184.86" y1="374.66" x2="1199.99" y2="374.66" xlink:href="#linear-gradient-2"/><linearGradient id="linear-gradient-20" x1="1204.75" y1="392.59" x2="1221.85" y2="392.59" xlink:href="#linear-gradient-2"/><linearGradient id="linear-gradient-21" x1="177.29" y1="1229.35" x2="233.54" y2="1229.35" xlink:href="#linear-gradient-2"/><linearGradient id="linear-gradient-22" x1="853.59" y1="1237.37" x2="861.5" y2="1237.37" xlink:href="#linear-gradient-2"/><linearGradient id="linear-gradient-23" x1="840.5" y1="1233.55" x2="848.41" y2="1233.55" xlink:href="#linear-gradient-2"/><linearGradient id="linear-gradient-24" x1="840.1" y1="1214" x2="888.29" y2="1214" xlink:href="#linear-gradient-2"/><linearGradient id="linear-gradient-25" x1="884.03" y1="1260.09" x2="884.03" y2="1260.09" xlink:href="#linear-gradient-2"/><linearGradient id="linear-gradient-26" x1="879.76" y1="1249.24" x2="888.33" y2="1249.24" xlink:href="#linear-gradient-2"/><linearGradient id="linear-gradient-27" x1="866.82" y1="1239.68" x2="899.98" y2="1239.68" xlink:href="#linear-gradient-2"/><linearGradient id="linear-gradient-28" x1="840.1" y1="1233.02" x2="899.98" y2="1233.02" xlink:href="#linear-gradient-2"/><linearGradient id="linear-gradient-34" x1="1173.77" y1="1503.08" x2="1228.83" y2="1503.08" xlink:href="#linear-gradient-2"/><linearGradient id="linear-gradient-35" x1="1183.87" y1="1511.34" x2="1194.88" y2="1511.34" xlink:href="#linear-gradient-2"/><linearGradient id="linear-gradient-36" x1="1197.63" y1="1506.75" x2="1218.74" y2="1506.75" xlink:href="#linear-gradient-2"/><linearGradient id="linear-gradient-37" x1="1197.63" y1="1511.34" x2="1218.74" y2="1511.34" xlink:href="#linear-gradient-2"/><linearGradient id="linear-gradient-38" x1="1197.63" y1="1515.93" x2="1218.74" y2="1515.93" xlink:href="#linear-gradient-2"/><linearGradient id="linear-gradient-39" x1="1183.87" y1="1520.52" x2="1218.74" y2="1520.52" xlink:href="#linear-gradient-2"/><linearGradient id="linear-gradient-40" x1="1183.87" y1="1525.11" x2="1218.74" y2="1525.11" xlink:href="#linear-gradient-2"/><linearGradient id="linear-gradient-41" x1="510.25" y1="1509.24" x2="568.87" y2="1509.24" xlink:href="#linear-gradient-2"/><linearGradient id="linear-gradient-42" x1="518.1" y1="1495.81" x2="563.98" y2="1495.81" xlink:href="#linear-gradient-2"/><linearGradient id="linear-gradient-43" x1="552.37" y1="362.88" x2="560.43" y2="362.88" xlink:href="#linear-gradient-2"/><linearGradient id="linear-gradient-44" x1="511.25" y1="377.26" x2="569.96" y2="377.26" xlink:href="#linear-gradient-2"/><linearGradient id="linear-gradient-45" x1="525.96" y1="377.51" x2="532.05" y2="377.51" xlink:href="#linear-gradient-2"/><linearGradient id="linear-gradient-46" x1="534.16" y1="377.51" x2="548.75" y2="377.51" xlink:href="#linear-gradient-2"/><linearGradient id="linear-gradient-47" x1="525.96" y1="369.24" x2="532.05" y2="369.24" xlink:href="#linear-gradient-2"/><linearGradient id="linear-gradient-48" x1="525.96" y1="385.78" x2="532.05" y2="385.78" xlink:href="#linear-gradient-2"/><linearGradient id="linear-gradient-49" x1="534.16" y1="385.83" x2="548.75" y2="385.83" xlink:href="#linear-gradient-2"/><linearGradient id="linear-gradient-50" x1="877.52" y1="653.68" x2="893.3" y2="653.68" xlink:href="#linear-gradient-2"/><linearGradient id="linear-gradient-51" x1="883.03" y1="661.89" x2="887.69" y2="661.89" xlink:href="#linear-gradient-2"/><linearGradient id="linear-gradient-52" x1="883.03" y1="667.29" x2="887.69" y2="667.29" xlink:href="#linear-gradient-2"/><linearGradient id="linear-gradient-53" x1="883.03" y1="672.8" x2="887.69" y2="672.8" xlink:href="#linear-gradient-2"/><linearGradient id="linear-gradient-54" x1="877.73" y1="661.89" x2="882.39" y2="661.89" xlink:href="#linear-gradient-2"/><linearGradient id="linear-gradient-55" x1="877.73" y1="667.29" x2="882.39" y2="667.29" xlink:href="#linear-gradient-2"/><linearGradient id="linear-gradient-56" x1="877.73" y1="672.8" x2="882.39" y2="672.8" xlink:href="#linear-gradient-2"/><linearGradient id="linear-gradient-57" x1="888.43" y1="661.89" x2="893.09" y2="661.89" xlink:href="#linear-gradient-2"/><linearGradient id="linear-gradient-58" x1="888.43" y1="667.29" x2="893.09" y2="667.29" xlink:href="#linear-gradient-2"/><linearGradient id="linear-gradient-59" x1="888.43" y1="672.8" x2="893.09" y2="672.8" xlink:href="#linear-gradient-2"/><linearGradient id="linear-gradient-60" x1="843.22" y1="651.14" x2="896.16" y2="651.14" xlink:href="#linear-gradient-2"/><linearGradient id="linear-gradient-61" x1="850.65" y1="666.71" x2="852.17" y2="666.71" xlink:href="#linear-gradient-2"/><linearGradient id="linear-gradient-62" x1="853.38" y1="666.71" x2="856.52" y2="666.71" xlink:href="#linear-gradient-2"/><linearGradient id="linear-gradient-63" x1="857.77" y1="666.71" x2="872.5" y2="666.71" xlink:href="#linear-gradient-2"/><linearGradient id="linear-gradient-64" x1="850.65" y1="661.41" x2="852.17" y2="661.41" xlink:href="#linear-gradient-2"/><linearGradient id="linear-gradient-65" x1="853.38" y1="661.41" x2="856.52" y2="661.41" xlink:href="#linear-gradient-2"/><linearGradient id="linear-gradient-66" x1="857.77" y1="661.41" x2="872.5" y2="661.41" xlink:href="#linear-gradient-2"/><linearGradient id="linear-gradient-67" x1="846.07" y1="636.66" x2="847.35" y2="636.66" xlink:href="#linear-gradient-2"/><linearGradient id="linear-gradient-68" x1="846.07" y1="644.77" x2="847.35" y2="644.77" xlink:href="#linear-gradient-2"/><linearGradient id="linear-gradient-69" x1="849.71" y1="644.97" x2="873.44" y2="644.97" xlink:href="#linear-gradient-2"/><linearGradient id="linear-gradient-70" x1="202.04" y1="652.53" x2="205.38" y2="652.53" xlink:href="#linear-gradient-2"/><linearGradient id="linear-gradient-71" x1="202.04" y1="647.33" x2="217.38" y2="647.33" xlink:href="#linear-gradient-2"/><linearGradient id="linear-gradient-72" x1="202.04" y1="657.72" x2="217.38" y2="657.72" xlink:href="#linear-gradient-2"/><linearGradient id="linear-gradient-73" x1="207.07" y1="652.53" x2="217.38" y2="652.53" xlink:href="#linear-gradient-2"/><linearGradient id="linear-gradient-74" x1="202.04" y1="642.14" x2="212.44" y2="642.14" xlink:href="#linear-gradient-2"/><linearGradient id="linear-gradient-75" x1="187.75" y1="643.96" x2="195.5" y2="643.96" xlink:href="#linear-gradient-2"/><linearGradient id="linear-gradient-76" x1="187.75" y1="654.26" x2="195.5" y2="654.26" xlink:href="#linear-gradient-2"/><linearGradient id="linear-gradient-77" x1="177.79" y1="657.72" x2="229.72" y2="657.72" xlink:href="#linear-gradient-2"/><linearGradient id="linear-gradient-78" x1="222.79" y1="666.38" x2="224.53" y2="666.38" xlink:href="#linear-gradient-2"/><clipPath id="clip-path" transform="translate(21.71 -30.3)"><path class="cls-1" d="M72,723.1"/></clipPath></defs><title>Opentech_Como funciona_Fluxo</title><g id="Layer_5" data-name="Layer 5"><path class="cls-2" d="M1201.07,348.25c-98.29-1.77-178.81,77.66-178.81,175.55,0,85-69.16,154.17-154.17,154.17S713.92,608.81,713.92,523.8c0-96.81-78.77-175.58-175.58-175.58S362.76,427,362.76,523.8c0,85.52-70,155-155.7,154.17-84.87-.83-152.64-71.26-152.64-156.13V373.34a.78.78,0,0,0-.72-.79l-10-17.31-10,17.31a.78.78,0,0,0-.71.79v149c0,96,76.4,175.33,172.35,177.07,98.29,1.77,178.81-77.67,178.81-175.56,0-85,69.16-154.17,154.17-154.17S692.51,438.8,692.51,523.8c0,96.82,78.76,175.59,175.58,175.59s175.58-78.77,175.58-175.59c0-85.13,69.36-154.37,154.54-154.16,84.6.2,153.8,71.12,153.8,155.72v841c0,84.6-69.2,155.52-153.8,155.73-85.18.2-154.54-69-154.54-154.17,0-96.82-78.77-175.58-175.58-175.58s-175.58,78.76-175.58,175.58c0,85-69.16,154.17-154.17,154.17s-154.17-69.16-154.17-154.17c0-97.89-80.52-177.33-178.81-175.55-96,1.73-172.35,81.1-172.35,177.07v148.95a.79.79,0,0,0,1.48.4l7.73-13.38a1.73,1.73,0,0,1,3,0l7.72,13.38a.8.8,0,0,0,1.49-.4V1369.86c0-84.87,67.77-155.3,152.64-156.12,85.71-.84,155.7,68.64,155.7,154.16,0,96.81,78.76,175.58,175.58,175.58s175.58-78.77,175.58-175.58c0-85,69.16-154.17,154.17-154.17s154.17,69.16,154.17,154.17c0,97.89,80.52,177.33,178.81,175.55,96-1.73,172.35-81.1,172.35-177.07V525.32C1373.42,429.36,1297,350,1201.07,348.25Z" transform="translate(21.71 -30.3)"/><path class="cls-3" d="M203.75,421a94.22,94.22,0,1,1-94.21,94.22A94.33,94.33,0,0,1,203.75,421m0-23.55A117.77,117.77,0,1,0,321.52,515.24,117.77,117.77,0,0,0,203.75,397.47Z" transform="translate(21.71 -30.3)"/><circle class="cls-4" cx="203.75" cy="515.24" r="100.69" transform="translate(-282.94 264.69) rotate(-45)"/><path class="cls-5" d="M539.56,426.38a94.22,94.22,0,1,1-94.22,94.21,94.31,94.31,0,0,1,94.22-94.21m0-23.56A117.77,117.77,0,1,0,657.33,520.59,117.77,117.77,0,0,0,539.56,402.82Z" transform="translate(21.71 -30.3)"/><circle class="cls-6" cx="561.27" cy="490.3" r="100.69"/><path class="cls-7" d="M1198,426.38a94.22,94.22,0,1,1-94.21,94.21A94.32,94.32,0,0,1,1198,426.38m0-23.56a117.77,117.77,0,1,0,117.77,117.77A117.76,117.76,0,0,0,1198,402.82Z" transform="translate(21.71 -30.3)"/><circle class="cls-8" cx="1219.75" cy="490.3" r="100.69"/><path class="cls-9" d="M868.2,426.38A94.22,94.22,0,1,1,774,520.59a94.31,94.31,0,0,1,94.22-94.21m0-23.56A117.77,117.77,0,1,0,986,520.59,117.77,117.77,0,0,0,868.2,402.82Z" transform="translate(21.71 -30.3)"/><circle class="cls-10" cx="889.9" cy="490.3" r="100.69"/><path class="cls-11" d="M199.8,809.87v.89a1.79,1.79,0,0,0,3.58,0v-.89a1.79,1.79,0,0,0-3.58,0Z" transform="translate(21.71 -30.3)"/><path class="cls-11" d="M199.8,793.75v.9a1.79,1.79,0,1,0,3.58,0v-.9a1.79,1.79,0,0,0-3.58,0Z" transform="translate(21.71 -30.3)"/><path class="cls-11" d="M199.8,769.59v.89a1.79,1.79,0,0,0,3.58,0v-.89a1.79,1.79,0,1,0-3.58,0Z" transform="translate(21.71 -30.3)"/><path class="cls-11" d="M199.8,785.7v.89a1.79,1.79,0,1,0,3.58,0v-.89a1.79,1.79,0,0,0-3.58,0Z" transform="translate(21.71 -30.3)"/><path class="cls-11" d="M199.8,777.64v.9a1.79,1.79,0,0,0,3.58,0v-.9a1.79,1.79,0,0,0-3.58,0Z" transform="translate(21.71 -30.3)"/><path class="cls-11" d="M199.8,801.81v.9a1.79,1.79,0,0,0,3.58,0v-.9a1.79,1.79,0,0,0-3.58,0Z" transform="translate(21.71 -30.3)"/><path class="cls-12" d="M188.52,762.92h0a2.38,2.38,0,0,0,3.47,0l9.7-9.69,9.69,9.69a2.39,2.39,0,0,0,3.48,0h0a2.58,2.58,0,0,0,0-3.22l-11.43-11.44a2.66,2.66,0,0,0-1.74-.74h0a2.25,2.25,0,0,0-1.74.74L188.52,759.7a2.55,2.55,0,0,0,0,3.22Z" transform="translate(21.71 -30.3)"/><path class="cls-11" d="M203.58,301v-.9a1.79,1.79,0,0,0-3.58,0v.9a1.79,1.79,0,1,0,3.58,0Z" transform="translate(21.71 -30.3)"/><path class="cls-11" d="M203.58,317.08v-.89a1.79,1.79,0,0,0-3.58,0v.89a1.79,1.79,0,0,0,3.58,0Z" transform="translate(21.71 -30.3)"/><path class="cls-11" d="M203.58,341.25v-.89a1.79,1.79,0,1,0-3.58,0v.89a1.79,1.79,0,0,0,3.58,0Z" transform="translate(21.71 -30.3)"/><path class="cls-11" d="M203.58,325.14v-.9a1.79,1.79,0,0,0-3.58,0v.9a1.79,1.79,0,0,0,3.58,0Z" transform="translate(21.71 -30.3)"/><path class="cls-11" d="M203.58,333.2v-.9a1.79,1.79,0,1,0-3.58,0v.9a1.79,1.79,0,0,0,3.58,0Z" transform="translate(21.71 -30.3)"/><path class="cls-11" d="M203.58,309v-.89a1.79,1.79,0,0,0-3.58,0V309a1.79,1.79,0,0,0,3.58,0Z" transform="translate(21.71 -30.3)"/><path class="cls-12" d="M214.86,347.92h0a2.39,2.39,0,0,0-3.48,0l-9.69,9.68-9.7-9.68a2.38,2.38,0,0,0-3.47,0h0a2.58,2.58,0,0,0,0,3.22l11.42,11.43a2.7,2.7,0,0,0,1.75.75h0a2.26,2.26,0,0,0,1.74-.75l11.43-11.43a2.58,2.58,0,0,0,0-3.22Z" transform="translate(21.71 -30.3)"/><path class="cls-11" d="M538.61,725.11V726a1.8,1.8,0,0,0,3.59,0v-.89a1.8,1.8,0,0,0-3.59,0Z" transform="translate(21.71 -30.3)"/><path class="cls-11" d="M538.61,709v.9a1.8,1.8,0,0,0,3.59,0V709a1.8,1.8,0,0,0-3.59,0Z" transform="translate(21.71 -30.3)"/><path class="cls-11" d="M538.61,684.83v.89a1.8,1.8,0,0,0,3.59,0v-.89a1.8,1.8,0,1,0-3.59,0Z" transform="translate(21.71 -30.3)"/><path class="cls-11" d="M538.61,700.94v.89a1.8,1.8,0,0,0,3.59,0v-.89a1.8,1.8,0,0,0-3.59,0Z" transform="translate(21.71 -30.3)"/><path class="cls-11" d="M538.61,692.88v.9a1.8,1.8,0,0,0,3.59,0v-.9a1.8,1.8,0,0,0-3.59,0Z" transform="translate(21.71 -30.3)"/><path class="cls-11" d="M538.61,717.05v.9a1.8,1.8,0,0,0,3.59,0v-.9a1.8,1.8,0,0,0-3.59,0Z" transform="translate(21.71 -30.3)"/><path class="cls-12" d="M527.33,678.16h0a2.39,2.39,0,0,0,3.48,0l9.69-9.69,9.7,9.69a2.39,2.39,0,0,0,3.48,0h0a2.58,2.58,0,0,0,0-3.22L542.25,663.5a2.67,2.67,0,0,0-1.75-.74h0a2.25,2.25,0,0,0-1.74.74l-11.43,11.44a2.58,2.58,0,0,0,0,3.22Z" transform="translate(21.71 -30.3)"/><path class="cls-11" d="M538.61,875.4v.9a1.8,1.8,0,0,0,3.59,0v-.9a1.8,1.8,0,0,0-3.59,0Z" transform="translate(21.71 -30.3)"/><path class="cls-11" d="M538.61,859.29v.9a1.8,1.8,0,0,0,3.59,0v-.9a1.8,1.8,0,0,0-3.59,0Z" transform="translate(21.71 -30.3)"/><path class="cls-11" d="M538.61,835.12v.9a1.8,1.8,0,0,0,3.59,0v-.9a1.8,1.8,0,0,0-3.59,0Z" transform="translate(21.71 -30.3)"/><path class="cls-11" d="M538.61,851.23v.9a1.8,1.8,0,0,0,3.59,0v-.9a1.8,1.8,0,0,0-3.59,0Z" transform="translate(21.71 -30.3)"/><path class="cls-11" d="M538.61,843.18v.89a1.8,1.8,0,0,0,3.59,0v-.89a1.8,1.8,0,0,0-3.59,0Z" transform="translate(21.71 -30.3)"/><path class="cls-11" d="M538.61,867.35v.89a1.8,1.8,0,0,0,3.59,0v-.89a1.8,1.8,0,0,0-3.59,0Z" transform="translate(21.71 -30.3)"/><path class="cls-12" d="M527.33,828.46h0a2.41,2.41,0,0,0,3.48,0l9.69-9.69,9.7,9.69a2.41,2.41,0,0,0,3.48,0h0a2.59,2.59,0,0,0,0-3.23L542.25,813.8a2.68,2.68,0,0,0-1.75-.75h0a2.26,2.26,0,0,0-1.74.75l-11.43,11.43a2.59,2.59,0,0,0,0,3.23Z" transform="translate(21.71 -30.3)"/><path class="cls-11" d="M542.39,225.6v-.9a1.79,1.79,0,1,0-3.58,0v.9a1.79,1.79,0,1,0,3.58,0Z" transform="translate(21.71 -30.3)"/><path class="cls-11" d="M542.39,241.71v-.89a1.79,1.79,0,1,0-3.58,0v.89a1.79,1.79,0,1,0,3.58,0Z" transform="translate(21.71 -30.3)"/><path class="cls-11" d="M542.39,265.88V265a1.79,1.79,0,1,0-3.58,0v.89a1.79,1.79,0,1,0,3.58,0Z" transform="translate(21.71 -30.3)"/><path class="cls-11" d="M542.39,249.77v-.9a1.79,1.79,0,1,0-3.58,0v.9a1.79,1.79,0,1,0,3.58,0Z" transform="translate(21.71 -30.3)"/><path class="cls-11" d="M542.39,257.83v-.9a1.79,1.79,0,1,0-3.58,0v.9a1.79,1.79,0,0,0,3.58,0Z" transform="translate(21.71 -30.3)"/><path class="cls-11" d="M542.39,233.65v-.89a1.79,1.79,0,1,0-3.58,0v.89a1.79,1.79,0,1,0,3.58,0Z" transform="translate(21.71 -30.3)"/><path class="cls-12" d="M553.67,272.54h0a2.4,2.4,0,0,0-3.47,0l-9.69,9.69-9.7-9.69a2.41,2.41,0,0,0-3.48,0h0a2.59,2.59,0,0,0,0,3.23l11.43,11.43a2.68,2.68,0,0,0,1.75.75h0a2.23,2.23,0,0,0,1.73-.75l11.43-11.43a2.57,2.57,0,0,0,0-3.23Z" transform="translate(21.71 -30.3)"/><path class="cls-11" d="M1197,725.11V726a1.79,1.79,0,0,0,3.58,0v-.89a1.79,1.79,0,1,0-3.58,0Z" transform="translate(21.71 -30.3)"/><path class="cls-11" d="M1197,709v.9a1.79,1.79,0,1,0,3.58,0V709a1.79,1.79,0,0,0-3.58,0Z" transform="translate(21.71 -30.3)"/><path class="cls-11" d="M1197,684.83v.89a1.79,1.79,0,0,0,3.58,0v-.89a1.79,1.79,0,1,0-3.58,0Z" transform="translate(21.71 -30.3)"/><path class="cls-11" d="M1197,700.94v.89a1.79,1.79,0,1,0,3.58,0v-.89a1.79,1.79,0,1,0-3.58,0Z" transform="translate(21.71 -30.3)"/><path class="cls-11" d="M1197,692.88v.9a1.79,1.79,0,0,0,3.58,0v-.9a1.79,1.79,0,1,0-3.58,0Z" transform="translate(21.71 -30.3)"/><path class="cls-11" d="M1197,717.05v.9a1.79,1.79,0,0,0,3.58,0v-.9a1.79,1.79,0,0,0-3.58,0Z" transform="translate(21.71 -30.3)"/><path class="cls-12" d="M1185.75,678.16h0a2.38,2.38,0,0,0,3.47,0l9.7-9.69,9.69,9.69a2.39,2.39,0,0,0,3.48,0h0a2.58,2.58,0,0,0,0-3.22l-11.43-11.44a2.66,2.66,0,0,0-1.74-.74h0a2.23,2.23,0,0,0-1.74.74l-11.43,11.44a2.55,2.55,0,0,0,0,3.22Z" transform="translate(21.71 -30.3)"/><path class="cls-11" d="M1200.81,225.6v-.9a1.79,1.79,0,0,0-3.58,0v.9a1.79,1.79,0,0,0,3.58,0Z" transform="translate(21.71 -30.3)"/><path class="cls-11" d="M1200.81,241.71v-.89a1.79,1.79,0,1,0-3.58,0v.89a1.79,1.79,0,1,0,3.58,0Z" transform="translate(21.71 -30.3)"/><path class="cls-11" d="M1200.81,265.88V265a1.79,1.79,0,1,0-3.58,0v.89a1.79,1.79,0,1,0,3.58,0Z" transform="translate(21.71 -30.3)"/><path class="cls-11" d="M1200.81,249.77v-.9a1.79,1.79,0,1,0-3.58,0v.9a1.79,1.79,0,0,0,3.58,0Z" transform="translate(21.71 -30.3)"/><path class="cls-11" d="M1200.81,257.83v-.9a1.79,1.79,0,1,0-3.58,0v.9a1.79,1.79,0,0,0,3.58,0Z" transform="translate(21.71 -30.3)"/><path class="cls-11" d="M1200.81,233.65v-.89a1.79,1.79,0,0,0-3.58,0v.89a1.79,1.79,0,1,0,3.58,0Z" transform="translate(21.71 -30.3)"/><path class="cls-12" d="M1212.09,272.54h0a2.41,2.41,0,0,0-3.48,0l-9.69,9.69-9.7-9.69a2.41,2.41,0,0,0-3.48,0h0a2.59,2.59,0,0,0,0,3.23l11.43,11.43a2.7,2.7,0,0,0,1.75.75h0a2.26,2.26,0,0,0,1.74-.75l11.43-11.43a2.59,2.59,0,0,0,0-3.23Z" transform="translate(21.71 -30.3)"/><path class="cls-11" d="M203.58,117.1v-.89a1.79,1.79,0,0,0-3.58,0v.89a1.79,1.79,0,1,0,3.58,0Z" transform="translate(21.71 -30.3)"/><path class="cls-11" d="M203.58,133.22v-.9a1.79,1.79,0,0,0-3.58,0v.9a1.79,1.79,0,0,0,3.58,0Z" transform="translate(21.71 -30.3)"/><path class="cls-11" d="M203.58,157.39v-.9a1.79,1.79,0,0,0-3.58,0v.9a1.79,1.79,0,0,0,3.58,0Z" transform="translate(21.71 -30.3)"/><path class="cls-11" d="M203.58,141.28v-.9a1.79,1.79,0,0,0-3.58,0v.9a1.79,1.79,0,0,0,3.58,0Z" transform="translate(21.71 -30.3)"/><path class="cls-11" d="M203.58,149.33v-.89a1.79,1.79,0,1,0-3.58,0v.89a1.79,1.79,0,0,0,3.58,0Z" transform="translate(21.71 -30.3)"/><path class="cls-11" d="M203.58,125.16v-.89a1.79,1.79,0,0,0-3.58,0v.89a1.79,1.79,0,0,0,3.58,0Z" transform="translate(21.71 -30.3)"/><path class="cls-12" d="M214.86,164.05h0a2.41,2.41,0,0,0-3.48,0l-9.69,9.69-9.7-9.69a2.4,2.4,0,0,0-3.47,0h0a2.59,2.59,0,0,0,0,3.23l11.42,11.43a2.7,2.7,0,0,0,1.75.75h0a2.26,2.26,0,0,0,1.74-.75l11.43-11.43a2.59,2.59,0,0,0,0-3.23Z" transform="translate(21.71 -30.3)"/><path class="cls-11" d="M867.7,809.87v.89a1.79,1.79,0,0,0,3.58,0v-.89a1.79,1.79,0,0,0-3.58,0Z" transform="translate(21.71 -30.3)"/><path class="cls-11" d="M867.7,793.75v.9a1.79,1.79,0,0,0,3.58,0v-.9a1.79,1.79,0,0,0-3.58,0Z" transform="translate(21.71 -30.3)"/><path class="cls-11" d="M867.7,769.59v.89a1.79,1.79,0,0,0,3.58,0v-.89a1.79,1.79,0,1,0-3.58,0Z" transform="translate(21.71 -30.3)"/><path class="cls-11" d="M867.7,785.7v.89a1.79,1.79,0,1,0,3.58,0v-.89a1.79,1.79,0,1,0-3.58,0Z" transform="translate(21.71 -30.3)"/><path class="cls-11" d="M867.7,777.64v.9a1.79,1.79,0,0,0,3.58,0v-.9a1.79,1.79,0,0,0-3.58,0Z" transform="translate(21.71 -30.3)"/><path class="cls-11" d="M867.7,801.81v.9a1.79,1.79,0,0,0,3.58,0v-.9a1.79,1.79,0,0,0-3.58,0Z" transform="translate(21.71 -30.3)"/><path class="cls-12" d="M856.42,762.92h0a2.38,2.38,0,0,0,3.47,0l9.7-9.69,9.69,9.69a2.39,2.39,0,0,0,3.48,0h0a2.58,2.58,0,0,0,0-3.22l-11.43-11.44a2.66,2.66,0,0,0-1.74-.74h0a2.24,2.24,0,0,0-1.74.74L856.42,759.7a2.55,2.55,0,0,0,0,3.22Z" transform="translate(21.71 -30.3)"/><path class="cls-11" d="M871.48,301v-.9a1.79,1.79,0,1,0-3.58,0v.9a1.79,1.79,0,1,0,3.58,0Z" transform="translate(21.71 -30.3)"/><path class="cls-11" d="M871.48,317.08v-.89a1.79,1.79,0,1,0-3.58,0v.89a1.79,1.79,0,1,0,3.58,0Z" transform="translate(21.71 -30.3)"/><path class="cls-11" d="M871.48,341.25v-.89a1.79,1.79,0,1,0-3.58,0v.89a1.79,1.79,0,1,0,3.58,0Z" transform="translate(21.71 -30.3)"/><path class="cls-11" d="M871.48,325.14v-.9a1.79,1.79,0,1,0-3.58,0v.9a1.79,1.79,0,1,0,3.58,0Z" transform="translate(21.71 -30.3)"/><path class="cls-11" d="M871.48,333.2v-.9a1.79,1.79,0,1,0-3.58,0v.9a1.79,1.79,0,1,0,3.58,0Z" transform="translate(21.71 -30.3)"/><path class="cls-11" d="M871.48,309v-.89a1.79,1.79,0,1,0-3.58,0V309a1.79,1.79,0,1,0,3.58,0Z" transform="translate(21.71 -30.3)"/><path class="cls-12" d="M882.76,347.92h0a2.39,2.39,0,0,0-3.48,0l-9.69,9.68-9.7-9.68a2.38,2.38,0,0,0-3.47,0h0a2.55,2.55,0,0,0,0,3.22l11.42,11.43a2.7,2.7,0,0,0,1.75.75h0a2.26,2.26,0,0,0,1.74-.75l11.43-11.43a2.58,2.58,0,0,0,0-3.22Z" transform="translate(21.71 -30.3)"/><path class="cls-11" d="M871.48,109v-.9a1.79,1.79,0,1,0-3.58,0v.9a1.79,1.79,0,1,0,3.58,0Z" transform="translate(21.71 -30.3)"/><path class="cls-11" d="M871.48,125.14v-.89a1.79,1.79,0,1,0-3.58,0v.89a1.79,1.79,0,1,0,3.58,0Z" transform="translate(21.71 -30.3)"/><path class="cls-11" d="M871.48,149.31v-.89a1.79,1.79,0,1,0-3.58,0v.89a1.79,1.79,0,1,0,3.58,0Z" transform="translate(21.71 -30.3)"/><path class="cls-11" d="M871.48,133.2v-.9a1.79,1.79,0,1,0-3.58,0v.9a1.79,1.79,0,1,0,3.58,0Z" transform="translate(21.71 -30.3)"/><path class="cls-11" d="M871.48,141.26v-.9a1.79,1.79,0,1,0-3.58,0v.9a1.79,1.79,0,1,0,3.58,0Z" transform="translate(21.71 -30.3)"/><path class="cls-11" d="M871.48,117.09v-.9a1.79,1.79,0,1,0-3.58,0v.9a1.79,1.79,0,1,0,3.58,0Z" transform="translate(21.71 -30.3)"/><path class="cls-12" d="M882.76,156h0a2.39,2.39,0,0,0-3.48,0l-9.69,9.69-9.7-9.69a2.38,2.38,0,0,0-3.47,0h0a2.55,2.55,0,0,0,0,3.22l11.42,11.44a2.74,2.74,0,0,0,1.75.74h0a2.29,2.29,0,0,0,1.74-.74l11.43-11.44a2.58,2.58,0,0,0,0-3.22Z" transform="translate(21.71 -30.3)"/><text class="cls-13" transform="translate(163.7 464.4)">INVEN<tspan class="cls-14" x="50.04" y="0">T</tspan><tspan x="58.41" y="0">ÁRIO DE </tspan><tspan x="10.21" y="23">SE</tspan><tspan class="cls-15" x="29.14" y="23">R</tspan><tspan class="cls-16" x="39.51" y="23">VI</tspan><tspan class="cls-17" x="55.69" y="23">Ç</tspan><tspan x="65.7" y="23">OS DE </tspan><tspan x="-22.31" y="46">TELE</tspan><tspan class="cls-18" x="15.18" y="46">C</tspan><tspan class="cls-16" x="25.15" y="46">OMUNI</tspan><tspan class="cls-19" x="82.12" y="46">C</tspan><tspan class="cls-20" x="92.82" y="46">A</tspan><tspan class="cls-18" x="103.98" y="46">Ç</tspan><tspan class="cls-16" x="113.98" y="46">ÕES</tspan></text><text class="cls-13" transform="translate(501.7 486.74)">MONI<tspan class="cls-21" x="44.89" y="0">T</tspan><tspan class="cls-16" x="54.04" y="0">ORIA DE </tspan><tspan class="cls-22"><tspan x="-0.88" y="23">F</tspan><tspan class="cls-23" x="7.2" y="23">A</tspan><tspan class="cls-24" x="17.32" y="23">TU</tspan><tspan class="cls-25" x="39.06" y="23">R</tspan><tspan class="cls-16" x="49.7" y="23">AMEN</tspan><tspan class="cls-26" x="97.97" y="23">T</tspan><tspan class="cls-24" x="107.12" y="23">O</tspan></tspan></text><text class="cls-13" transform="translate(1155.37 486.74)">PUBLI<tspan class="cls-19" x="46.94" y="0">C</tspan><tspan class="cls-20" x="57.63" y="0">A</tspan><tspan class="cls-27" x="68.79" y="0">Ç</tspan><tspan class="cls-28" x="79.52" y="0">Ã</tspan><tspan class="cls-16" x="90.68" y="0">O DE </tspan><tspan class="cls-22"><tspan x="3.93" y="23">F</tspan><tspan class="cls-23" x="12.01" y="23">A</tspan><tspan class="cls-24" x="22.13" y="23">TU</tspan><tspan class="cls-25" x="43.87" y="23">R</tspan><tspan class="cls-16" x="54.51" y="23">AMEN</tspan><tspan class="cls-26" x="102.79" y="23">T</tspan><tspan class="cls-24" x="111.93" y="23">O</tspan></tspan></text><text class="cls-13" transform="translate(829.91 499.23)">PRÉ <tspan class="cls-29" x="33.59" y="0">A</tspan><tspan class="cls-16" x="44.57" y="0">UDI</tspan><tspan class="cls-21" x="73.91" y="0">T</tspan><tspan class="cls-16" x="83.05" y="0">ORIA</tspan></text><path class="cls-30" d="M203.75,1470.68A94.22,94.22,0,1,1,298,1376.46a94.32,94.32,0,0,1-94.22,94.22m0,23.55A117.77,117.77,0,1,0,86,1376.46a117.77,117.77,0,0,0,117.77,117.77Z" transform="translate(21.71 -30.3)"/><circle class="cls-31" cx="203.75" cy="1376.46" r="100.69" transform="translate(-891.92 516.93) rotate(-45)"/><path class="cls-32" d="M539.56,1465.32a94.21,94.21,0,1,1,94.21-94.21,94.32,94.32,0,0,1-94.21,94.21m0,23.56a117.77,117.77,0,1,0-117.77-117.77,117.77,117.77,0,0,0,117.77,117.77Z" transform="translate(21.71 -30.3)"/><circle class="cls-33" cx="561.27" cy="1340.81" r="100.69"/><path class="cls-34" d="M1198,1465.32a94.21,94.21,0,1,1,94.22-94.21,94.31,94.31,0,0,1-94.22,94.21m0,23.56a117.77,117.77,0,1,0-117.76-117.77A117.77,117.77,0,0,0,1198,1488.88Z" transform="translate(21.71 -30.3)"/><circle class="cls-35" cx="1219.75" cy="1340.81" r="100.69"/><path class="cls-36" d="M868.2,1465.32a94.21,94.21,0,1,1,94.21-94.21,94.32,94.32,0,0,1-94.21,94.21m0,23.56a117.77,117.77,0,1,0-117.77-117.77A117.76,117.76,0,0,0,868.2,1488.88Z" transform="translate(21.71 -30.3)"/><circle class="cls-37" cx="889.9" cy="1340.81" r="100.69"/><path class="cls-11" d="M199.8,1580.94v.9a1.79,1.79,0,1,0,3.58,0v-.9a1.79,1.79,0,0,0-3.58,0Z" transform="translate(21.71 -30.3)"/><path class="cls-11" d="M199.8,1564.83v.9a1.79,1.79,0,0,0,3.58,0v-.9a1.79,1.79,0,0,0-3.58,0Z" transform="translate(21.71 -30.3)"/><path class="cls-11" d="M199.8,1540.66v.9a1.79,1.79,0,0,0,3.58,0v-.9a1.79,1.79,0,1,0-3.58,0Z" transform="translate(21.71 -30.3)"/><path class="cls-11" d="M199.8,1556.77v.9a1.79,1.79,0,0,0,3.58,0v-.9a1.79,1.79,0,0,0-3.58,0Z" transform="translate(21.71 -30.3)"/><path class="cls-11" d="M199.8,1548.72v.89a1.79,1.79,0,1,0,3.58,0v-.89a1.79,1.79,0,0,0-3.58,0Z" transform="translate(21.71 -30.3)"/><path class="cls-11" d="M199.8,1572.89v.89a1.79,1.79,0,0,0,3.58,0v-.89a1.79,1.79,0,1,0-3.58,0Z" transform="translate(21.71 -30.3)"/><path class="cls-12" d="M188.52,1534h0a2.4,2.4,0,0,0,3.47,0l9.7-9.69,9.69,9.69a2.41,2.41,0,0,0,3.48,0h0a2.59,2.59,0,0,0,0-3.23l-11.43-11.43a2.68,2.68,0,0,0-1.74-.75h0a2.26,2.26,0,0,0-1.74.75l-11.43,11.43a2.57,2.57,0,0,0,0,3.23Z" transform="translate(21.71 -30.3)"/><path class="cls-11" d="M538.61,1655.65v.89a1.8,1.8,0,0,0,3.59,0v-.89a1.8,1.8,0,1,0-3.59,0Z" transform="translate(21.71 -30.3)"/><path class="cls-11" d="M538.61,1639.53v.9a1.8,1.8,0,0,0,3.59,0v-.9a1.8,1.8,0,0,0-3.59,0Z" transform="translate(21.71 -30.3)"/><path class="cls-11" d="M538.61,1615.36v.9a1.8,1.8,0,0,0,3.59,0v-.9a1.8,1.8,0,0,0-3.59,0Z" transform="translate(21.71 -30.3)"/><path class="cls-11" d="M538.61,1631.48v.89a1.8,1.8,0,0,0,3.59,0v-.89a1.8,1.8,0,0,0-3.59,0Z" transform="translate(21.71 -30.3)"/><path class="cls-11" d="M538.61,1623.42v.89a1.8,1.8,0,1,0,3.59,0v-.89a1.8,1.8,0,0,0-3.59,0Z" transform="translate(21.71 -30.3)"/><path class="cls-11" d="M538.61,1647.59v.89a1.8,1.8,0,0,0,3.59,0v-.89a1.8,1.8,0,0,0-3.59,0Z" transform="translate(21.71 -30.3)"/><path class="cls-12" d="M527.33,1608.7h0a2.41,2.41,0,0,0,3.48,0l9.69-9.69,9.7,9.69a2.41,2.41,0,0,0,3.48,0h0a2.59,2.59,0,0,0,0-3.23L542.25,1594a2.68,2.68,0,0,0-1.75-.75h0a2.26,2.26,0,0,0-1.74.75l-11.43,11.43a2.59,2.59,0,0,0,0,3.23Z" transform="translate(21.71 -30.3)"/><path class="cls-11" d="M542.39,1159.25v-.89a1.79,1.79,0,0,0-3.58,0v.89a1.79,1.79,0,1,0,3.58,0Z" transform="translate(21.71 -30.3)"/><path class="cls-11" d="M542.39,1175.37v-.9a1.79,1.79,0,0,0-3.58,0v.9a1.79,1.79,0,0,0,3.58,0Z" transform="translate(21.71 -30.3)"/><path class="cls-11" d="M542.39,1199.54v-.9a1.79,1.79,0,0,0-3.58,0v.9a1.79,1.79,0,1,0,3.58,0Z" transform="translate(21.71 -30.3)"/><path class="cls-11" d="M542.39,1183.42v-.89a1.79,1.79,0,0,0-3.58,0v.89a1.79,1.79,0,1,0,3.58,0Z" transform="translate(21.71 -30.3)"/><path class="cls-11" d="M542.39,1191.48v-.9a1.79,1.79,0,0,0-3.58,0v.9a1.79,1.79,0,1,0,3.58,0Z" transform="translate(21.71 -30.3)"/><path class="cls-11" d="M542.39,1167.31v-.9a1.79,1.79,0,0,0-3.58,0v.9a1.79,1.79,0,1,0,3.58,0Z" transform="translate(21.71 -30.3)"/><path class="cls-12" d="M553.67,1206.2h0a2.38,2.38,0,0,0-3.47,0l-9.69,9.69-9.7-9.69a2.39,2.39,0,0,0-3.48,0h0a2.58,2.58,0,0,0,0,3.22l11.43,11.44a2.67,2.67,0,0,0,1.75.74h0a2.22,2.22,0,0,0,1.73-.74l11.43-11.44a2.55,2.55,0,0,0,0-3.22Z" transform="translate(21.71 -30.3)"/><path class="cls-11" d="M1197,1655.65v.89a1.79,1.79,0,0,0,3.58,0v-.89a1.79,1.79,0,1,0-3.58,0Z" transform="translate(21.71 -30.3)"/><path class="cls-11" d="M1197,1639.53v.9a1.79,1.79,0,0,0,3.58,0v-.9a1.79,1.79,0,0,0-3.58,0Z" transform="translate(21.71 -30.3)"/><path class="cls-11" d="M1197,1615.36v.9a1.79,1.79,0,0,0,3.58,0v-.9a1.79,1.79,0,0,0-3.58,0Z" transform="translate(21.71 -30.3)"/><path class="cls-11" d="M1197,1631.48v.89a1.79,1.79,0,0,0,3.58,0v-.89a1.79,1.79,0,0,0-3.58,0Z" transform="translate(21.71 -30.3)"/><path class="cls-11" d="M1197,1623.42v.89a1.79,1.79,0,1,0,3.58,0v-.89a1.79,1.79,0,0,0-3.58,0Z" transform="translate(21.71 -30.3)"/><path class="cls-11" d="M1197,1647.59v.89a1.79,1.79,0,0,0,3.58,0v-.89a1.79,1.79,0,0,0-3.58,0Z" transform="translate(21.71 -30.3)"/><path class="cls-12" d="M1185.75,1608.7h0a2.4,2.4,0,0,0,3.47,0l9.7-9.69,9.69,9.69a2.41,2.41,0,0,0,3.48,0h0a2.59,2.59,0,0,0,0-3.23L1200.66,1594a2.68,2.68,0,0,0-1.74-.75h0a2.23,2.23,0,0,0-1.74.75l-11.43,11.43a2.57,2.57,0,0,0,0,3.23Z" transform="translate(21.71 -30.3)"/><path class="cls-11" d="M867.7,1580.94v.9a1.79,1.79,0,0,0,3.58,0v-.9a1.79,1.79,0,0,0-3.58,0Z" transform="translate(21.71 -30.3)"/><path class="cls-11" d="M867.7,1564.83v.9a1.79,1.79,0,0,0,3.58,0v-.9a1.79,1.79,0,0,0-3.58,0Z" transform="translate(21.71 -30.3)"/><path class="cls-11" d="M867.7,1540.66v.9a1.79,1.79,0,0,0,3.58,0v-.9a1.79,1.79,0,1,0-3.58,0Z" transform="translate(21.71 -30.3)"/><path class="cls-11" d="M867.7,1556.77v.9a1.79,1.79,0,0,0,3.58,0v-.9a1.79,1.79,0,0,0-3.58,0Z" transform="translate(21.71 -30.3)"/><path class="cls-11" d="M867.7,1548.72v.89a1.79,1.79,0,0,0,3.58,0v-.89a1.79,1.79,0,0,0-3.58,0Z" transform="translate(21.71 -30.3)"/><path class="cls-11" d="M867.7,1572.89v.89a1.79,1.79,0,0,0,3.58,0v-.89a1.79,1.79,0,1,0-3.58,0Z" transform="translate(21.71 -30.3)"/><path class="cls-12" d="M856.42,1534h0a2.4,2.4,0,0,0,3.47,0l9.7-9.69,9.69,9.69a2.41,2.41,0,0,0,3.48,0h0a2.59,2.59,0,0,0,0-3.23l-11.43-11.43a2.68,2.68,0,0,0-1.74-.75h0a2.25,2.25,0,0,0-1.74.75l-11.43,11.43a2.57,2.57,0,0,0,0,3.23Z" transform="translate(21.71 -30.3)"/><text class="cls-13" transform="translate(156.22 1353.35)">INTEG<tspan class="cls-25" x="48.31" y="0">R</tspan><tspan class="cls-20" x="58.95" y="0">A</tspan><tspan class="cls-19" x="70.11" y="0">Ç</tspan><tspan class="cls-20" x="80.84" y="0">Ã</tspan><tspan class="cls-16" x="92" y="0">O ERP</tspan></text><text class="cls-13" transform="translate(511.87 1337.01)">RE<tspan class="cls-38" x="19.89" y="0">L</tspan><tspan class="cls-39" x="29" y="0">A</tspan><tspan class="cls-21" x="39.11" y="0">T</tspan><tspan class="cls-16" x="48.26" y="0">ÓRIOS </tspan><tspan x="-4.58" y="23">FINANCEI</tspan><tspan class="cls-40" x="70.55" y="23">R</tspan><tspan class="cls-16" x="80.95" y="23">OS</tspan></text><text class="cls-13" transform="translate(1149.67 1353.35)">OPORTUNI<tspan class="cls-41" x="85.05" y="0">D</tspan><tspan class="cls-16" x="97.09" y="0">ADES</tspan></text><text class="cls-42" transform="translate(809.19 1337.01)">A<tspan class="cls-17" x="11.16" y="0">C</tspan><tspan class="cls-24" x="21.13" y="0">OM</tspan><tspan class="cls-43" x="48.87" y="0">P</tspan><tspan class="cls-16" x="58.05" y="0">ANHAMEN</tspan><tspan class="cls-21" x="142.36" y="0">T</tspan><tspan class="cls-16" x="151.5" y="0">O </tspan><tspan class="cls-24"><tspan x="12.77" y="23">DE O</tspan><tspan class="cls-40" x="50.66" y="23">R</tspan><tspan class="cls-19" x="61.06" y="23">Ç</tspan><tspan x="71.79" y="23">AMEN</tspan><tspan class="cls-21" x="120.07" y="23">T</tspan><tspan class="cls-16" x="129.21" y="23">OS </tspan></tspan></text><path class="cls-44" d="M540.4,337.54a41.76,41.76,0,1,1-41.75,41.75,41.8,41.8,0,0,1,41.75-41.75m0-12.85A54.6,54.6,0,1,0,595,379.29a54.61,54.61,0,0,0-54.61-54.6Z" transform="translate(21.71 -30.3)"/><circle class="cls-45" cx="540.4" cy="379.29" r="42.67" transform="translate(101.16 821.67) rotate(-80.78)"/><path class="cls-46" d="M869.22,611.64a41.76,41.76,0,1,1-41.75,41.75,41.8,41.8,0,0,1,41.75-41.75m0-12.85a54.6,54.6,0,1,0,54.6,54.6,54.61,54.61,0,0,0-54.6-54.6Z" transform="translate(21.71 -30.3)"/><circle class="cls-45" cx="869.22" cy="653.39" r="42.67" transform="translate(106.74 1376.43) rotate(-80.78)"/><path class="cls-47" d="M1200.81,337.54a41.76,41.76,0,1,1-41.76,41.75,41.8,41.8,0,0,1,41.76-41.75m0-12.85a54.6,54.6,0,1,0,54.6,54.6,54.6,54.6,0,0,0-54.6-54.6Z" transform="translate(21.71 -30.3)"/><circle class="cls-45" cx="1200.81" cy="379.29" r="42.67" transform="translate(655.77 1473.54) rotate(-80.78)"/><path class="cls-48" d="M203.75,611.64A41.76,41.76,0,1,1,162,653.39a41.81,41.81,0,0,1,41.75-41.75m0-12.85a54.6,54.6,0,1,0,54.6,54.6,54.61,54.61,0,0,0-54.6-54.6Z" transform="translate(21.71 -30.3)"/><circle class="cls-45" cx="203.75" cy="653.39" r="42.67" transform="translate(-452.13 719.55) rotate(-80.78)"/><path class="cls-49" d="M540.4,1548.87a41.75,41.75,0,1,1,41.76-41.75,41.8,41.8,0,0,1-41.76,41.75m0,12.85a54.6,54.6,0,1,0-54.6-54.6,54.6,54.6,0,0,0,54.6,54.6Z" transform="translate(21.71 -30.3)"/><circle class="cls-45" cx="540.4" cy="1507.12" r="42.67" transform="translate(-212.73 75.73) rotate(-9.22)"/><path class="cls-50" d="M869.22,1274.77A41.75,41.75,0,1,1,911,1233a41.8,41.8,0,0,1-41.76,41.75m0,12.85a54.6,54.6,0,1,0-54.6-54.6,54.6,54.6,0,0,0,54.6,54.6Z" transform="translate(21.71 -30.3)"/><circle class="cls-45" cx="869.22" cy="1233.02" r="42.67" transform="translate(-164.57 124.86) rotate(-9.22)"/><path class="cls-51" d="M1200.81,1548.87a41.75,41.75,0,1,1,41.75-41.75,41.8,41.8,0,0,1-41.75,41.75m0,12.85a54.6,54.6,0,1,0-54.6-54.6,54.6,54.6,0,0,0,54.6,54.6Z" transform="translate(21.71 -30.3)"/><circle class="cls-45" cx="1200.81" cy="1507.12" r="42.67" transform="translate(-204.2 181.51) rotate(-9.22)"/><path class="cls-52" d="M203.75,1274.77A41.75,41.75,0,1,1,245.51,1233a41.8,41.8,0,0,1-41.76,41.75m0,12.85a54.6,54.6,0,1,0-54.6-54.6,54.6,54.6,0,0,0,54.6,54.6Z" transform="translate(21.71 -30.3)"/><circle class="cls-45" cx="203.75" cy="1233.02" r="42.67" transform="translate(-173.17 18.26) rotate(-9.22)"/><path class="cls-53" d="M1216.82,375.75V364.42a1.29,1.29,0,0,0-.36-.86l-12.7-13.34a1.28,1.28,0,0,0-.91-.39h-20.14a6.71,6.71,0,0,0-6.69,6.75v38.08a6.67,6.67,0,0,0,6.69,6.7h15.9a17.15,17.15,0,1,0,18.21-25.61Zm-12.72-21.54,8.52,9h-5.53a3,3,0,0,1-3-3ZM1197.43,386H1186.1a1.25,1.25,0,0,0,0,2.49h10.52a17,17,0,0,0-.47,4,16.54,16.54,0,0,0,1.22,6.34h-14.66a4.18,4.18,0,0,1-4.19-4.21V356.58a4.21,4.21,0,0,1,4.19-4.25h18.89v7.85a5.5,5.5,0,0,0,5.49,5.5h7.24v9.74c-.38,0-.68-.05-1-.05a17.36,17.36,0,0,0-11.38,4.3H1186.1a1.25,1.25,0,0,0,0,2.49h13.53A20.15,20.15,0,0,0,1197.43,386Zm15.89,21.18A14.66,14.66,0,1,1,1228,392.55,14.67,14.67,0,0,1,1213.32,407.21Z" transform="translate(21.71 -30.3)"/><path class="cls-54" d="M1186.1,375.91h12.64a1.25,1.25,0,0,0,0-2.5H1186.1a1.25,1.25,0,0,0,0,2.5Z" transform="translate(21.71 -30.3)"/><path class="cls-55" d="M1219.7,392.29l-5.12,5.53V384.19a1.25,1.25,0,0,0-2.5,0v13.63l-5.16-5.53a1.27,1.27,0,0,0-1.78-.06,1.25,1.25,0,0,0-.06,1.76l7.3,7.85a1.24,1.24,0,0,0,1.82,0l7.31-7.85a1.24,1.24,0,1,0-1.81-1.7Z" transform="translate(21.71 -30.3)"/><path class="cls-56" d="M194.16,1257.5a16.81,16.81,0,0,0,11.25-4.34,16.86,16.86,0,1,0,15.67-28.81,16.87,16.87,0,1,0-31.33,0,16.87,16.87,0,0,0,4.41,33.15Zm7.5-16.88a14.81,14.81,0,0,1,1.19-5.84,15.23,15.23,0,0,0,5.13,0,14.92,14.92,0,0,1-2.57,15.73,15,15,0,0,1-3.75-9.89Zm5.42-7.59a14.27,14.27,0,0,1-3.33,0,15.11,15.11,0,0,1,1.66-2.3,14.51,14.51,0,0,1,1.67,2.3Zm-.34-3.62a14.8,14.8,0,0,1,11.59-3.7,15,15,0,0,1-9.29,6.94,17.21,17.21,0,0,0-2.3-3.25Zm-5,3.25a15,15,0,0,1-9.29-7,14.85,14.85,0,0,1,11.59,3.69,17.28,17.28,0,0,0-2.3,3.26Zm29.88,8a15,15,0,0,1-24.93,11.22,16.77,16.77,0,0,0,3.09-17.45,17,17,0,0,0,10.46-8.31,15,15,0,0,1,11.38,14.54Zm-26.26-37.5A15,15,0,0,1,219.23,1224a16.51,16.51,0,0,0-13.82,4.12A16.48,16.48,0,0,0,191.6,1224a15,15,0,0,1,13.81-20.84Zm-14.87,23a17,17,0,0,0,10.46,8.31,16.72,16.72,0,0,0,3.09,17.45,15,15,0,1,1-13.55-25.76Zm0,0" transform="translate(21.71 -30.3)"/><path class="cls-57" d="M861.5,1232.12a.77.77,0,0,0-.77-.78h-6.36a.78.78,0,0,0-.78.78v10.5a.78.78,0,0,0,.78.78h6.36a.77.77,0,0,0,.77-.78Zm-1.42,9.59h-4.93v-8.81h4.93Zm0,0" transform="translate(21.71 -30.3)"/><path class="cls-58" d="M848.41,1224.6a.78.78,0,0,0-.78-.78h-6.35a.78.78,0,0,0-.78.78v17.89a.78.78,0,0,0,.78.78h6.35a.78.78,0,0,0,.78-.78ZM847,1241.71h-4.92v-16.33H847Zm0,0" transform="translate(21.71 -30.3)"/><path class="cls-59" d="M867.59,1217a4.39,4.39,0,0,0,7.28-4.61l5.11-4.68a4.39,4.39,0,1,0-.48-2c0,.1,0,.2,0,.3l-5.46,5a4.4,4.4,0,0,0-7.33,4.66l-5.26,4.45a4.4,4.4,0,0,0-7.39-.39l-5.32-3.71a4.41,4.41,0,1,0-.69,1.42l5.33,3.71a4.4,4.4,0,1,0,8.61.55Zm16.31-14.12a2.84,2.84,0,1,1-2.84,2.84,2.84,2.84,0,0,1,2.84-2.84Zm-13.13,8.24a2.85,2.85,0,1,1-2.84,2.85,2.85,2.85,0,0,1,2.84-2.85Zm-26.26,6.59a2.85,2.85,0,1,1,2.84-2.84,2.84,2.84,0,0,1-2.84,2.84Zm13.13,7.45a2.84,2.84,0,1,1,2.84-2.84,2.84,2.84,0,0,1-2.84,2.84Zm0,0" transform="translate(21.71 -30.3)"/><path class="cls-60" d="M884,1260.09" transform="translate(21.71 -30.3)"/><path class="cls-61" d="M884,1242.93a2.72,2.72,0,0,1,2.72,2.73.78.78,0,0,0,.78.78.81.81,0,0,0,.8-.78,4.31,4.31,0,0,0-3.49-4.21v-1.22a.78.78,0,0,0-.78-.78.77.77,0,0,0-.77.78v1.22a4.24,4.24,0,0,0-3.53,4.21,4.28,4.28,0,0,0,4.28,4.28,2.73,2.73,0,0,1,0,5.45H884a2.73,2.73,0,0,1-2.7-2.72.78.78,0,0,0-.78-.78.74.74,0,0,0-.54.23.78.78,0,0,0-.22.55,4.23,4.23,0,0,0,3.53,4.2v1.38a.77.77,0,0,0,.77.78.78.78,0,0,0,.78-.78v-1.38a4.28,4.28,0,0,0-.8-8.49,2.71,2.71,0,0,1-2.38-1.35,2.72,2.72,0,0,1,2.37-4.1Zm0,0" transform="translate(21.71 -30.3)"/><path class="cls-62" d="M887.82,1233.25v-17.84a.73.73,0,0,0-.71-.79h-6.42a.79.79,0,0,0-.78.79v17.91a16.38,16.38,0,0,0-5.18,2.43v-12.13a.81.81,0,0,0-.75-.84h-6.42a.8.8,0,0,0-.74.84v18.93a.7.7,0,0,0,.21.53.75.75,0,0,0,.53.19H869a16.65,16.65,0,0,0-1,5.47,16,16,0,1,0,19.78-15.49Zm-6.35-17.08h4.8V1233a15.66,15.66,0,0,0-2.27-.17,15.33,15.33,0,0,0-2.53.21Zm-13.09,8.17h4.79V1237a18,18,0,0,0-3.52,4.7h-1.27ZM884,1263.2a14.43,14.43,0,1,1,14.43-14.43A14.43,14.43,0,0,1,884,1263.2Zm0,0" transform="translate(21.71 -30.3)"/><path class="cls-63" d="M861.5,1232.12a.77.77,0,0,0-.77-.78h-6.36a.78.78,0,0,0-.78.78v10.5a.78.78,0,0,0,.78.78h6.36a.77.77,0,0,0,.77-.78Zm-1.42,9.59h-4.93v-8.81h4.93Zm0,0" transform="translate(21.71 -30.3)"/><path class="cls-63" d="M848.41,1224.6a.78.78,0,0,0-.78-.78h-6.35a.78.78,0,0,0-.78.78v17.89a.78.78,0,0,0,.78.78h6.35a.78.78,0,0,0,.78-.78ZM847,1241.71h-4.92v-16.33H847Zm0,0" transform="translate(21.71 -30.3)"/><path class="cls-63" d="M867.59,1217a4.39,4.39,0,0,0,7.28-4.61l5.11-4.68a4.39,4.39,0,1,0-.48-2c0,.1,0,.2,0,.3l-5.46,5a4.4,4.4,0,0,0-7.33,4.66l-5.26,4.45a4.4,4.4,0,0,0-7.39-.39l-5.32-3.71a4.41,4.41,0,1,0-.69,1.42l5.33,3.71a4.4,4.4,0,1,0,8.61.55Zm16.31-14.12a2.84,2.84,0,1,1-2.84,2.84,2.84,2.84,0,0,1,2.84-2.84Zm-13.13,8.24a2.85,2.85,0,1,1-2.84,2.85,2.85,2.85,0,0,1,2.84-2.85Zm-26.26,6.59a2.85,2.85,0,1,1,2.84-2.84,2.84,2.84,0,0,1-2.84,2.84Zm13.13,7.45a2.84,2.84,0,1,1,2.84-2.84,2.84,2.84,0,0,1-2.84,2.84Zm0,0" transform="translate(21.71 -30.3)"/><path class="cls-63" d="M884,1260.09" transform="translate(21.71 -30.3)"/><path class="cls-63" d="M884,1242.93a2.72,2.72,0,0,1,2.72,2.73.78.78,0,0,0,.78.78.81.81,0,0,0,.8-.78,4.31,4.31,0,0,0-3.49-4.21v-1.22a.78.78,0,0,0-.78-.78.77.77,0,0,0-.77.78v1.22a4.24,4.24,0,0,0-3.53,4.21,4.28,4.28,0,0,0,4.28,4.28,2.73,2.73,0,0,1,0,5.45H884a2.73,2.73,0,0,1-2.7-2.72.78.78,0,0,0-.78-.78.74.74,0,0,0-.54.23.78.78,0,0,0-.22.55,4.23,4.23,0,0,0,3.53,4.2v1.38a.77.77,0,0,0,.77.78.78.78,0,0,0,.78-.78v-1.38a4.28,4.28,0,0,0-.8-8.49,2.71,2.71,0,0,1-2.38-1.35,2.72,2.72,0,0,1,2.37-4.1Zm0,0" transform="translate(21.71 -30.3)"/><path class="cls-63" d="M887.82,1233.25v-17.84a.73.73,0,0,0-.71-.79h-6.42a.79.79,0,0,0-.78.79v17.91a16.38,16.38,0,0,0-5.18,2.43v-12.13a.81.81,0,0,0-.75-.84h-6.42a.8.8,0,0,0-.74.84v18.93a.7.7,0,0,0,.21.53.75.75,0,0,0,.53.19H869a16.65,16.65,0,0,0-1,5.47,16,16,0,1,0,19.78-15.49Zm-6.35-17.08h4.8V1233a15.66,15.66,0,0,0-2.27-.17,15.33,15.33,0,0,0-2.53.21Zm-13.09,8.17h4.79V1237a18,18,0,0,0-3.52,4.7h-1.27ZM884,1263.2a14.43,14.43,0,1,1,14.43-14.43A14.43,14.43,0,0,1,884,1263.2Zm0,0" transform="translate(21.71 -30.3)"/><path class="cls-64" d="M1227.91,1528.78h-3.67v-25.7a2.75,2.75,0,0,0-2.75-2.75v-5.51a2.75,2.75,0,0,0-2.75-2.75v-5.5a2.77,2.77,0,0,0-2.76-2.76v-5.5a2.76,2.76,0,0,0-2.75-2.76h-23.86a2.76,2.76,0,0,0-2.75,2.76v5.5a2.76,2.76,0,0,0-2.75,2.76v5.5a2.76,2.76,0,0,0-2.76,2.75v5.51a2.75,2.75,0,0,0-2.75,2.75v25.7h-3.67a.92.92,0,1,0,0,1.83h53.22a.92.92,0,1,0,0-1.83Zm-39.46-50.47a.92.92,0,0,1,.92-.92h23.86a.92.92,0,0,1,.92.92v5.5h-13.86a4.59,4.59,0,0,0-9,0h-2.85Zm9.93,5.5h-5.17a2.74,2.74,0,0,1,5.17,0Zm-12.68,2.76a.92.92,0,0,1,.92-.92H1216a.92.92,0,0,1,.92.92v5.5h-19.36a4.59,4.59,0,0,0-9,0h-2.85Zm9.93,5.5h-5.17a2.74,2.74,0,0,1,5.17,0Zm-12.68,2.75a.92.92,0,0,1,.92-.91h34.87a.91.91,0,0,1,.91.91v5.51h-24.86a4.59,4.59,0,0,0-9,0H1183Zm9.92,5.51h-5.16a2.73,2.73,0,0,1,5.16,0Zm-12.67,28.45v-25.7a.91.91,0,0,1,.91-.91h40.38a.92.92,0,0,1,.92.91v25.7Z" transform="translate(21.71 -30.3)"/><path class="cls-65" d="M1189.37,1516.85a5.51,5.51,0,1,0-5.5-5.51A5.51,5.51,0,0,0,1189.37,1516.85Zm0-9.18a3.67,3.67,0,1,1-3.67,3.67A3.67,3.67,0,0,1,1189.37,1507.67Z" transform="translate(21.71 -30.3)"/><path class="cls-66" d="M1217.82,1505.84h-19.27a.92.92,0,1,0,0,1.83h19.27a.92.92,0,1,0,0-1.83Z" transform="translate(21.71 -30.3)"/><path class="cls-67" d="M1217.82,1510.42h-19.27a.92.92,0,0,0,0,1.84h19.27a.92.92,0,0,0,0-1.84Z" transform="translate(21.71 -30.3)"/><path class="cls-68" d="M1217.82,1515h-19.27a.92.92,0,1,0,0,1.84h19.27a.92.92,0,1,0,0-1.84Z" transform="translate(21.71 -30.3)"/><path class="cls-69" d="M1217.82,1519.6h-33a.92.92,0,0,0,0,1.84h33a.92.92,0,1,0,0-1.84Z" transform="translate(21.71 -30.3)"/><path class="cls-70" d="M1217.82,1524.19h-33a.92.92,0,0,0,0,1.83h33a.92.92,0,1,0,0-1.83Z" transform="translate(21.71 -30.3)"/><path class="cls-71" d="M562.44,1482.86h-8.9a.86.86,0,1,0,0,1.72h8.9a4.71,4.71,0,0,1,4.71,4.71v26.88h-9.91a.86.86,0,1,0,0,1.72h9.83a4.72,4.72,0,0,1-4.63,3.85H540a.86.86,0,1,0,0,1.72h4.93v3.39a.81.81,0,0,0,.21.56l2,2.35h-15l2-2.35a.86.86,0,0,0,.21-.56v-3.39h1.95a.86.86,0,1,0,0-1.72H516.68a4.7,4.7,0,0,1-4.63-3.85h41.53a.86.86,0,1,0,0-1.72H512v-26.88a4.71,4.71,0,0,1,4.71-4.71h9a.86.86,0,0,0,0-1.72h-9a6.43,6.43,0,0,0-6.43,6.43V1517a6.43,6.43,0,0,0,6.43,6.43h15.94v3.07l-2.78,3.23h-1.15a2.5,2.5,0,0,0-2.49,2.49v.87a2.5,2.5,0,0,0,2.49,2.49h21.74a2.5,2.5,0,0,0,2.49-2.49v-.87a2.5,2.5,0,0,0-2.49-2.49h-1l-2.78-3.23v-3.07h15.83a6.43,6.43,0,0,0,6.43-6.43v-27.74A6.43,6.43,0,0,0,562.44,1482.86Zm-12,48.62a.78.78,0,0,1,.77.77v.87a.77.77,0,0,1-.77.77H528.69a.77.77,0,0,1-.77-.77v-.87a.78.78,0,0,1,.77-.77Z" transform="translate(21.71 -30.3)"/><path class="cls-72" d="M526.56,1492.23a.86.86,0,0,0,.94-.78,12.13,12.13,0,0,1,3.87-7.88,10.34,10.34,0,0,1,.82-.69L538.9,1493a.87.87,0,0,0,.72.39h12.13a12.19,12.19,0,0,1-7,10.19l-4.94-4.67a3.06,3.06,0,0,0,.37-1.48,3.19,3.19,0,1,0-6.38,0,3.14,3.14,0,0,0,.25,1.23l-.77.61a.86.86,0,0,0-.14,1.21.88.88,0,0,0,.68.33.9.9,0,0,0,.53-.19l.77-.61a3.19,3.19,0,0,0,1.87.61,3.25,3.25,0,0,0,1.64-.45l4.32,4.07a11.92,11.92,0,0,1-3.28.45,12.18,12.18,0,0,1-11.94-9.81.86.86,0,0,0-1.69.34,13.81,13.81,0,0,0,3.61,6.92l-6.43,5.09a3.19,3.19,0,1,0,1.31,2.58,3.33,3.33,0,0,0-.24-1.23l6.65-5.26a13.88,13.88,0,0,0,13.43,2.27l2.89,2.73a3.25,3.25,0,0,0-.37,1.49,3.19,3.19,0,1,0,6-1.47l6.27-5.86a3.12,3.12,0,0,0,1.66.47,3.19,3.19,0,1,0-2.83-1.72l-6.27,5.85a3.21,3.21,0,0,0-1.66-.46,3.15,3.15,0,0,0-1.64.45l-2.36-2.23a13.88,13.88,0,1,0-20.25-13.53A.86.86,0,0,0,526.56,1492.23Zm10.38,6.66a1.47,1.47,0,1,1,1.47-1.47A1.46,1.46,0,0,1,536.94,1498.89Zm-15.65,12.37a1.47,1.47,0,0,1,0-2.93,1.47,1.47,0,1,1,0,2.93Zm39.5-13a1.47,1.47,0,1,1-1.47,1.47A1.47,1.47,0,0,1,560.79,1498.28ZM549,1508.79h0a1.46,1.46,0,0,1,1.06-.46,1.49,1.49,0,0,1,1.07.46h0a1.48,1.48,0,1,1-2.14,0Zm-9.35-28.44a12.18,12.18,0,0,1,12.13,11.31H540.08l-6.46-9.73A12.11,12.11,0,0,1,539.62,1480.35Z" transform="translate(21.71 -30.3)"/><path class="cls-73" d="M556.23,357.65h.21a2.12,2.12,0,0,1,2.08,2.12,1,1,0,0,0,1.91,0,4,4,0,0,0-3.17-3.93v-.91a1,1,0,1,0-1.9,0v.95a4,4,0,0,0,1,7.92,2.13,2.13,0,1,1-2.12,2.13,1,1,0,1,0-1.91,0,4.05,4.05,0,0,0,3,3.89v1a1,1,0,1,0,1.9,0v-1a4,4,0,0,0-.86-8,2.12,2.12,0,0,1-.17-4.24Z" transform="translate(21.71 -30.3)"/><path class="cls-74" d="M556.45,349.31a13.64,13.64,0,0,0-12.71,8.94H520.13a1,1,0,0,0-1,1L519,392.61h-6.73a.93.93,0,0,0-1,.9v4.24a7.47,7.47,0,0,0,7.13,7.44v0h29.37v0l.49,0h0a7.48,7.48,0,0,0,7.46-7.47V376.33l.73,0a13.52,13.52,0,0,0,0-27Zm-37.7,54h0a5.61,5.61,0,0,1-5.59-5.57v-3.23h27.59v3.21a7.45,7.45,0,0,0,2.2,5.29c.1.1.22.18.33.3Zm35.06-5.57a5.57,5.57,0,0,1-5.55,5.57h0a5.61,5.61,0,0,1-5.6-5.59v-4.21a.88.88,0,0,0-.26-.65.87.87,0,0,0-.65-.25H520.86l.22-32.46h22.13a13.74,13.74,0,0,0-.26,2.64,13.41,13.41,0,0,0,1.15,5.44h-9a.95.95,0,1,0,0,1.9h10a13.41,13.41,0,0,0,8.68,6Zm2.64-23.29a11.61,11.61,0,1,1,11.61-11.6A11.61,11.61,0,0,1,556.45,374.45Z" transform="translate(21.71 -30.3)"/><path class="cls-75" d="M529,374.56a3,3,0,1,0,3,2.95A3,3,0,0,0,529,374.56Zm0,4a1,1,0,1,1,1.14-1.05A1.1,1.1,0,0,1,529,378.56Z" transform="translate(21.71 -30.3)"/><path class="cls-76" d="M534.16,377.51a1,1,0,0,0,1,.95H547.8a1,1,0,0,0,0-1.91H535.11A1,1,0,0,0,534.16,377.51Z" transform="translate(21.71 -30.3)"/><path class="cls-77" d="M529,366.29a3,3,0,1,0,3,2.95A3,3,0,0,0,529,366.29Zm0,4h0a1,1,0,1,1,1.14-1.05A1.1,1.1,0,0,1,529,370.29Z" transform="translate(21.71 -30.3)"/><path class="cls-78" d="M529,382.83a3,3,0,1,0,3,2.95A3,3,0,0,0,529,382.83Zm0,4a1,1,0,1,1,1.14-1A1.1,1.1,0,0,1,529,386.82Z" transform="translate(21.71 -30.3)"/><path class="cls-79" d="M547.8,384.88H535.11a.95.95,0,1,0,0,1.9H547.8a1,1,0,0,0,0-1.9Z" transform="translate(21.71 -30.3)"/><path class="cls-80" d="M892.66,651.25h-14.5a.64.64,0,0,0-.64.63v3.6a.64.64,0,0,0,.64.64h14.5a.64.64,0,0,0,.64-.64v-3.6A.64.64,0,0,0,892.66,651.25Zm-.74,3.6H878.79v-2.33h13.13Z" transform="translate(21.71 -30.3)"/><path class="cls-81" d="M883.66,664.06h3.39a.64.64,0,0,0,.64-.63v-3.07a.64.64,0,0,0-.64-.64h-3.39a.63.63,0,0,0-.63.64v3.07A.63.63,0,0,0,883.66,664.06Zm.64-3.07h2.12v1.8H884.3Z" transform="translate(21.71 -30.3)"/><path class="cls-82" d="M883.66,669.46h3.39a.64.64,0,0,0,.64-.63v-3.07a.64.64,0,0,0-.64-.64h-3.39a.63.63,0,0,0-.63.64v3.07A.63.63,0,0,0,883.66,669.46Zm.64-3.07h2.12v1.91H884.3Z" transform="translate(21.71 -30.3)"/><path class="cls-83" d="M883.66,675h3.39a.64.64,0,0,0,.64-.64v-3.07a.64.64,0,0,0-.64-.63h-3.39a.63.63,0,0,0-.63.63v3.07A.64.64,0,0,0,883.66,675Zm.64-3.07h2.12v1.8H884.3Z" transform="translate(21.71 -30.3)"/><path class="cls-84" d="M878.37,664.06h3.39a.63.63,0,0,0,.63-.63v-3.07a.63.63,0,0,0-.63-.64h-3.39a.64.64,0,0,0-.64.64v3.07A.64.64,0,0,0,878.37,664.06ZM879,661h2v1.8h-2Z" transform="translate(21.71 -30.3)"/><path class="cls-85" d="M878.37,669.46h3.39a.63.63,0,0,0,.63-.63v-3.07a.63.63,0,0,0-.63-.64h-3.39a.64.64,0,0,0-.64.64v3.07A.64.64,0,0,0,878.37,669.46Zm.63-3.07h2v1.91h-2Z" transform="translate(21.71 -30.3)"/><path class="cls-86" d="M878.37,675h3.39a.64.64,0,0,0,.63-.64v-3.07a.63.63,0,0,0-.63-.63h-3.39a.64.64,0,0,0-.64.63v3.07A.64.64,0,0,0,878.37,675Zm.63-3.07h2v1.8h-2Z" transform="translate(21.71 -30.3)"/><path class="cls-87" d="M889.06,664.06h3.39a.64.64,0,0,0,.64-.63v-3.07a.64.64,0,0,0-.64-.64h-3.39a.63.63,0,0,0-.63.64v3.07A.63.63,0,0,0,889.06,664.06Zm.64-3.07h2v1.8h-2Z" transform="translate(21.71 -30.3)"/><path class="cls-88" d="M889.06,669.46h3.39a.64.64,0,0,0,.64-.63v-3.07a.64.64,0,0,0-.64-.64h-3.39a.63.63,0,0,0-.63.64v3.07A.63.63,0,0,0,889.06,669.46Zm.64-3.07h2v1.91h-2Z" transform="translate(21.71 -30.3)"/><path class="cls-89" d="M889.06,675h3.39a.64.64,0,0,0,.64-.64v-3.07a.64.64,0,0,0-.64-.63h-3.39a.63.63,0,0,0-.63.63v3.07A.64.64,0,0,0,889.06,675Zm.64-3.07h2v1.8h-2Z" transform="translate(21.71 -30.3)"/><path class="cls-90" d="M893.37,648.6H880.59V625.66a.68.68,0,0,0-.66-.67h-29a.68.68,0,0,0-.46.21l-7.07,7.39a.66.66,0,0,0-.17.44v40.36a.61.61,0,0,0,.63.62h30.71v.5a2.8,2.8,0,0,0,2.78,2.79h16.07a2.75,2.75,0,0,0,2.75-2.75V651.39A2.8,2.8,0,0,0,893.37,648.6Zm-43.06-21.36v5.16h-5Zm44.58,47.27a1.53,1.53,0,0,1-1.52,1.52h-16a1.52,1.52,0,0,1-1.51-1.52v-8.65a.64.64,0,1,0-1.27,0v6.88H844.49V633.67h6.43a.64.64,0,0,0,.66-.62v-6.79h27.74V648.6h-2a2.8,2.8,0,0,0-2.78,2.79v10a.64.64,0,1,0,1.27,0v-3.17h19.06Zm0-17.54H875.83v-5.58a1.52,1.52,0,0,1,1.51-1.52h16.07a1.5,1.5,0,0,1,1.48,1.48Z" transform="translate(21.71 -30.3)"/><path class="cls-91" d="M851.53,666.07h-.25a.64.64,0,0,0,0,1.27h.25A.64.64,0,1,0,851.53,666.07Z" transform="translate(21.71 -30.3)"/><path class="cls-92" d="M855.89,666.07H854a.64.64,0,1,0,0,1.27h1.88A.64.64,0,0,0,855.89,666.07Z" transform="translate(21.71 -30.3)"/><path class="cls-93" d="M871.86,666.07H858.41a.64.64,0,1,0,0,1.27h13.45A.64.64,0,1,0,871.86,666.07Z" transform="translate(21.71 -30.3)"/><path class="cls-94" d="M851.53,660.78h-.25a.64.64,0,0,0,0,1.27h.25A.64.64,0,1,0,851.53,660.78Z" transform="translate(21.71 -30.3)"/><path class="cls-95" d="M855.89,660.78H854a.64.64,0,1,0,0,1.27h1.88A.64.64,0,0,0,855.89,660.78Z" transform="translate(21.71 -30.3)"/><path class="cls-96" d="M871.86,660.78H858.41a.64.64,0,1,0,0,1.27h13.45A.64.64,0,1,0,871.86,660.78Z" transform="translate(21.71 -30.3)"/><path class="cls-97" d="M846.71,635.65a.64.64,0,0,0-.64.63V637a.64.64,0,0,0,1.28,0v-.75A.64.64,0,0,0,846.71,635.65Z" transform="translate(21.71 -30.3)"/><path class="cls-98" d="M846.71,638.92a.64.64,0,0,0-.64.64V650a.64.64,0,0,0,1.28,0V639.56A.64.64,0,0,0,846.71,638.92Z" transform="translate(21.71 -30.3)"/><path class="cls-99" d="M862,633.11a11.85,11.85,0,0,0-9.7,4.53.63.63,0,0,0,1,.79,10.93,10.93,0,0,1,1.69-1.71l6.07,9a.71.71,0,0,0,.53.33h10.58a10.6,10.6,0,1,1-20.76-3.88.62.62,0,0,0-.3-.72h0a.63.63,0,0,0-.92.39,11.76,11.76,0,0,0-.42,3.44A11.87,11.87,0,1,0,862,633.11ZM856,636a10.54,10.54,0,0,1,12.65,1.06l-7,7.3Zm7,8.79L869.5,638a10.59,10.59,0,0,1,2.67,6.83Z" transform="translate(21.71 -30.3)"/></g><g id="Layer_6" data-name="Layer 6"><text class="cls-100" transform="translate(151.73 42.9)">Digitalização de <tspan class="cls-101" x="-12" y="21">c</tspan><tspan x="-1.93" y="21">o</tspan><tspan class="cls-102" x="9.68" y="21">n</tspan><tspan x="21.07" y="21">t</tspan><tspan class="cls-103" x="28.52" y="21">r</tspan><tspan class="cls-104" x="35.5" y="21">a</tspan><tspan class="cls-105" x="45.85" y="21">t</tspan><tspan x="53.23" y="21">os vige</tspan><tspan class="cls-102" x="116.48" y="21">n</tspan><tspan x="127.87" y="21">tes</tspan></text><text class="cls-100" transform="translate(128.06 201.36)">Associação sistêmi<tspan class="cls-105" x="170.03" y="0">c</tspan><tspan x="180.22" y="0">a </tspan><tspan x="4.77" y="21">e</tspan><tspan class="cls-102" x="15.79" y="21">n</tspan><tspan x="27.17" y="21">tre designações e </tspan><tspan class="cls-101" x="52.41" y="42">c</tspan><tspan x="62.48" y="42">o</tspan><tspan class="cls-102" x="74.09" y="42">n</tspan><tspan x="85.48" y="42">t</tspan><tspan class="cls-103" x="92.93" y="42">r</tspan><tspan class="cls-104" x="99.91" y="42">a</tspan><tspan class="cls-105" x="110.26" y="42">t</tspan><tspan x="117.64" y="42">os</tspan></text><text class="cls-100" transform="translate(135.04 812.84)">Cadast<tspan class="cls-106" x="62.47" y="0">r</tspan><tspan x="69.36" y="0">o de po</tspan><tspan class="cls-102" x="137.32" y="0">n</tspan><tspan class="cls-105" x="148.71" y="0">t</tspan><tspan x="156.08" y="0">os </tspan><tspan x="19.02" y="21">de presença do </tspan><tspan x="57.92" y="42">clie</tspan><tspan class="cls-102" x="88.95" y="42">n</tspan><tspan x="100.34" y="42">te</tspan></text><text class="cls-100" transform="translate(793.19 15.14)">A<tspan class="cls-101" x="13.22" y="0">c</tspan><tspan x="23.29" y="0">ompanhame</tspan><tspan class="cls-102" x="137.96" y="0">n</tspan><tspan class="cls-105" x="149.35" y="0">t</tspan><tspan x="156.73" y="0">o de </tspan><tspan x="9.35" y="21">p</tspan><tspan class="cls-106" x="21.33" y="21">r</tspan><tspan x="28.22" y="21">ocessos de ajuste </tspan><tspan x="52.89" y="42">de </tspan><tspan class="cls-103" x="80.76" y="42">f</tspan><tspan class="cls-104" x="87.55" y="42">a</tspan><tspan x="97.9" y="42">tu</tspan><tspan class="cls-103" x="116.86" y="42">r</tspan><tspan x="123.84" y="42">as</tspan></text><text class="cls-100" transform="translate(837.52 182.03)">Abertu<tspan class="cls-103" x="62.24" y="0">r</tspan><tspan x="69.22" y="0">a de </tspan><tspan x="-8.43" y="21">p</tspan><tspan class="cls-106" x="3.55" y="21">r</tspan><tspan class="cls-107" x="10.44" y="21">o</tspan><tspan class="cls-105" x="21.92" y="21">t</tspan><tspan x="29.29" y="21">o</tspan><tspan class="cls-101" x="40.91" y="21">c</tspan><tspan x="50.98" y="21">olos de </tspan><tspan class="cls-101" x="-15.56" y="42">c</tspan><tspan x="-5.5" y="42">o</tspan><tspan class="cls-102" x="6.12" y="42">n</tspan><tspan x="17.51" y="42">testação de </tspan><tspan class="cls-102" x="21.71" y="63">v</tspan><tspan x="31.78" y="63">alores</tspan></text><text class="cls-100" transform="translate(813.65 812.84)"><tspan class="cls-108">C</tspan><tspan x="12.85" y="0">o</tspan><tspan class="cls-102" x="24.46" y="0">n</tspan><tspan x="35.85" y="0">t</tspan><tspan class="cls-106" x="43.3" y="0">r</tspan><tspan x="50.19" y="0">ole </tspan><tspan class="cls-101" x="82.58" y="0">c</tspan><tspan x="92.65" y="0">o</tspan><tspan class="cls-102" x="104.27" y="0">n</tspan><tspan x="115.65" y="0">tábil</tspan><tspan x="66.16" y="21">de</tspan><tspan x="1.48" y="42">p</tspan><tspan class="cls-106" x="13.45" y="42">r</tspan><tspan class="cls-109" x="20.35" y="42">o</tspan><tspan x="31.8" y="42">visioname</tspan><tspan class="cls-102" x="123.44" y="42">n</tspan><tspan class="cls-105" x="134.83" y="42">t</tspan><tspan x="142.2" y="42">o</tspan></text><text class="cls-100" transform="translate(488.46 104.1)">Relacioname<tspan class="cls-102" x="117.13" y="0">n</tspan><tspan class="cls-105" x="128.52" y="0">t</tspan><tspan x="135.9" y="0">o</tspan><tspan class="cls-101" x="41.12" y="21">c</tspan><tspan x="51.19" y="21">om os</tspan><tspan class="cls-110" x="-0.39" y="42">f</tspan><tspan x="6.25" y="42">ornecedores do </tspan><tspan x="43.31" y="63">clie</tspan><tspan class="cls-102" x="74.35" y="63">n</tspan><tspan x="85.74" y="63">te</tspan></text><text class="cls-100" transform="translate(494.2 726.1)">Requisições de <tspan x="5.23" y="21">segundas vias</tspan></text><text class="cls-100" transform="translate(1161.87 104.1)">Memórias de<tspan x="12.88" y="21">cálculo de</tspan><tspan class="cls-102" x="2.28" y="42">v</tspan><tspan x="12.35" y="42">alidação de </tspan><tspan class="cls-101" x="12.57" y="63">c</tspan><tspan x="22.64" y="63">ob</tspan><tspan class="cls-103" x="46.23" y="63">r</tspan><tspan x="53.21" y="63">anças</tspan></text><text class="cls-100" transform="translate(1167.84 726.1)"><tspan class="cls-108">C</tspan><tspan x="12.85" y="0">o</tspan><tspan class="cls-102" x="24.46" y="0">n</tspan><tspan x="35.85" y="0">t</tspan><tspan class="cls-106" x="43.3" y="0">r</tspan><tspan x="50.19" y="0">ole de </tspan><tspan x="-4.28" y="21">publi</tspan><tspan class="cls-105" x="40.94" y="21">c</tspan><tspan x="51.14" y="21">ação e </tspan><tspan x="-6.23" y="42">d</tspan><tspan class="cls-102" x="5.75" y="42">o</tspan><tspan x="17.24" y="42">wnload de </tspan><tspan x="-4.13" y="63">docume</tspan><tspan class="cls-102" x="70.31" y="63">n</tspan><tspan class="cls-105" x="81.69" y="63">t</tspan><tspan x="89.07" y="63">os</tspan></text><text class="cls-100" transform="translate(494.2 880.8)">Requisições de <tspan x="-1.18" y="21">p</tspan><tspan class="cls-106" x="10.79" y="21">r</tspan><tspan x="17.68" y="21">or</tspan><tspan class="cls-111" x="36.37" y="21">r</tspan><tspan x="43.27" y="21">ogação de </tspan><tspan x="14.36" y="42">vencime</tspan><tspan class="cls-102" x="91.3" y="42">n</tspan><tspan class="cls-105" x="102.68" y="42">t</tspan><tspan x="110.06" y="42">o</tspan></text><text class="cls-100" transform="translate(142.03 1583.91)"><tspan class="cls-108">C</tspan><tspan x="12.85" y="0">o</tspan><tspan class="cls-103" x="24.46" y="0">n</tspan><tspan class="cls-110" x="35.89" y="0">f</tspan><tspan x="42.53" y="0">orme recurso</tspan><tspan x="32.72" y="21">e p</tspan><tspan class="cls-106" x="60.59" y="21">r</tspan><tspan x="67.48" y="21">ocesso</tspan><tspan x="1.79" y="42">i</tspan><tspan class="cls-102" x="6.67" y="42">n</tspan><tspan x="18.06" y="42">terno do clie</tspan><tspan class="cls-102" x="131.11" y="42">n</tspan><tspan x="142.5" y="42">te</tspan></text><text class="cls-100" transform="translate(807.13 1583.91)">A<tspan class="cls-101" x="13.22" y="0">c</tspan><tspan x="23.29" y="0">ompanhame</tspan><tspan class="cls-102" x="137.96" y="0">n</tspan><tspan class="cls-105" x="149.35" y="0">t</tspan><tspan x="156.73" y="0">o</tspan><tspan x="12.26" y="21">da aderência de </tspan><tspan x="28.95" y="42">despesas ao </tspan><tspan x="34.73" y="63">orçame</tspan><tspan class="cls-102" x="103.24" y="63">n</tspan><tspan class="cls-105" x="114.62" y="63">t</tspan><tspan x="122" y="63">o </tspan><tspan x="26.4" y="84">estabelecido</tspan></text><text class="cls-100" transform="translate(516.78 1059.49)">Rel<tspan class="cls-104" x="28.86" y="0">a</tspan><tspan x="39.22" y="0">tórios</tspan><tspan x="-12.65" y="21">d</tspan><tspan class="cls-105" x="-0.68" y="21">e</tspan><tspan x="10.26" y="21">talhados e </tspan><tspan class="cls-101" x="-13.88" y="42">c</tspan><tspan x="-3.81" y="42">onsolidados</tspan></text><text class="cls-100" transform="translate(502.82 1665.38)"><tspan class="cls-108">C</tspan><tspan x="12.85" y="0">obertu</tspan><tspan class="cls-103" x="73.48" y="0">r</tspan><tspan x="80.46" y="0">a de </tspan><tspan class="cls-105" x="22" y="21">t</tspan><tspan x="29.37" y="21">odas as</tspan><tspan x="3.35" y="42">i</tspan><tspan class="cls-103" x="8.23" y="42">n</tspan><tspan class="cls-110" x="19.65" y="42">f</tspan><tspan x="26.3" y="42">ormações </tspan><tspan class="cls-101" x="15.47" y="63">c</tspan><tspan x="25.53" y="63">o</tspan><tspan class="cls-102" x="37.15" y="63">n</tspan><tspan x="48.54" y="63">tábeis</tspan><tspan x="7.54" y="84">necessárias</tspan></text><text class="cls-100" transform="translate(1137.66 1665.38)">Críti<tspan class="cls-105" x="37.4" y="0">c</tspan><tspan x="47.59" y="0">as sistêmi</tspan><tspan class="cls-105" x="136.27" y="0">c</tspan><tspan x="146.46" y="0">as</tspan><tspan x="13.36" y="21">de despesas de</tspan><tspan class="cls-105" x="20.8" y="42">c</tspan><tspan x="30.99" y="42">ada uma das</tspan><tspan class="cls-103" x="51.69" y="63">f</tspan><tspan class="cls-104" x="58.48" y="63">a</tspan><tspan x="68.83" y="63">tu</tspan><tspan class="cls-103" x="87.79" y="63">r</tspan><tspan x="94.77" y="63">as</tspan><tspan x="31.63" y="84">p</tspan><tspan class="cls-106" x="43.6" y="84">r</tspan><tspan x="50.49" y="84">ocessada</tspan></text></g><g id="Layer_7" data-name="Layer 7"><path class="cls-112" d="M202.54,653h2.34a.5.5,0,0,0,.5-.5.5.5,0,0,0-.5-.5h-2.34a.5.5,0,0,0-.5.5A.51.51,0,0,0,202.54,653Z" transform="translate(21.71 -30.3)"/><path class="cls-113" d="M216.88,646.83H202.54a.51.51,0,0,0-.5.5.5.5,0,0,0,.5.5h14.34a.5.5,0,0,0,.5-.5A.5.5,0,0,0,216.88,646.83Z" transform="translate(21.71 -30.3)"/><path class="cls-114" d="M216.88,657.22H202.54a.5.5,0,1,0,0,1h14.34a.5.5,0,0,0,0-1Z" transform="translate(21.71 -30.3)"/><path class="cls-115" d="M216.88,652h-9.31a.5.5,0,0,0-.5.5.51.51,0,0,0,.5.5h9.31a.5.5,0,0,0,.5-.5A.5.5,0,0,0,216.88,652Z" transform="translate(21.71 -30.3)"/><path class="cls-116" d="M202.54,642.64h9.4a.5.5,0,0,0,0-1h-9.4a.5.5,0,1,0,0,1Z" transform="translate(21.71 -30.3)"/><path class="cls-117" d="M187.75,647.83h7.75v-7.74h-7.75Zm1-6.74h5.75v5.74h-5.75Z" transform="translate(21.71 -30.3)"/><path class="cls-118" d="M187.75,658.13h7.75v-7.75h-7.75Zm1-6.75h5.75v5.75h-5.75Z" transform="translate(21.71 -30.3)"/><path class="cls-119" d="M225.39,634.35H182.11a4.33,4.33,0,0,0-4.32,4.33v27.69a4.33,4.33,0,0,0,4.32,4.33h16.33l-.64,5.2h-2.7a.86.86,0,0,0-.87.86v3.46a.87.87,0,0,0,.87.87h17.31a.86.86,0,0,0,.86-.87v-3.46a.85.85,0,0,0-.86-.86h-2.7l-.65-5.2h16.33a4.34,4.34,0,0,0,4.33-4.33V638.68A4.34,4.34,0,0,0,225.39,634.35Zm-13.85,43.28v1.73H196v-1.73Zm-12-1.73.65-5.2h7.13l.64,5.2ZM228,666.37a2.6,2.6,0,0,1-2.6,2.6H182.11a2.59,2.59,0,0,1-2.59-2.6v-2.59H228Zm0-4.32H179.52V638.68a2.6,2.6,0,0,1,2.59-2.6h43.28a2.61,2.61,0,0,1,2.6,2.6Z" transform="translate(21.71 -30.3)"/><path class="cls-120" d="M223.17,667.09a.48.48,0,0,0,.16.08.43.43,0,0,0,.16.05l.17,0a.86.86,0,0,0,.61-1.48.84.84,0,0,0-.28-.18.9.9,0,0,0-1,.18.89.89,0,0,0,0,1.23Z" transform="translate(21.71 -30.3)"/><g class="cls-121"><path class="cls-122" d="M72,723.1Z" transform="translate(21.71 -30.3)"/><path class="cls-123" d="M72,723.1Z" transform="translate(21.71 -30.3)"/><path class="cls-124" d="M72,723.1Z" transform="translate(21.71 -30.3)"/><rect class="cls-125" x="83.57" y="644.18" width="0.98" height="90.55"/><rect class="cls-126" x="84.55" y="644.18" width="0.98" height="90.55"/><rect class="cls-127" x="85.53" y="644.18" width="0.98" height="90.55"/><rect class="cls-128" x="86.52" y="644.18" width="0.98" height="90.55"/><rect class="cls-129" x="87.5" y="644.18" width="0.98" height="90.55"/><rect class="cls-130" x="88.48" y="644.18" width="0.98" height="90.55"/><rect class="cls-131" x="89.46" y="644.18" width="0.98" height="90.55"/><rect class="cls-132" x="90.45" y="644.18" width="0.98" height="90.55"/><rect class="cls-133" x="91.43" y="644.18" width="0.98" height="90.55"/><rect class="cls-134" x="92.41" y="644.18" width="0.98" height="90.55"/><rect class="cls-123" x="93.4" y="644.18" width="0.3" height="90.55"/><path class="cls-122" d="M-21.71,671.34v0Z" transform="translate(21.71 -30.3)"/><rect class="cls-122" y="641.04" width="0.98" height="96.83"/><rect class="cls-135" x="0.98" y="641.04" width="0.98" height="96.83"/><rect class="cls-136" x="1.96" y="641.04" width="0.98" height="96.83"/><rect class="cls-125" x="83.57" y="641.04" width="0.98" height="96.83"/><rect class="cls-126" x="84.55" y="641.04" width="0.98" height="96.83"/><rect class="cls-127" x="85.53" y="641.04" width="0.98" height="96.83"/><rect class="cls-128" x="86.52" y="641.04" width="0.98" height="96.83"/><rect class="cls-129" x="87.5" y="641.04" width="0.98" height="96.83"/><rect class="cls-130" x="88.48" y="641.04" width="0.98" height="96.83"/><rect class="cls-131" x="89.46" y="641.04" width="0.98" height="96.83"/><rect class="cls-132" x="90.45" y="641.04" width="0.98" height="96.83"/><rect class="cls-133" x="91.43" y="641.04" width="0.98" height="96.83"/><rect class="cls-134" x="92.41" y="641.04" width="0.98" height="96.83"/><rect class="cls-123" x="93.4" y="641.04" width="0.98" height="96.83"/><rect class="cls-137" x="94.38" y="641.04" width="0.98" height="96.83"/><rect class="cls-137" x="95.36" y="641.04" width="0.73" height="96.83"/><rect class="cls-124" x="96.1" y="641.04" width="0.73" height="96.83"/><path class="cls-124" d="M75.12,768.17v0Z" transform="translate(21.71 -30.3)"/></g></g></svg>